<svg width="480" height="553" viewBox="0 0 480 553" fill="none" xmlns="http://www.w3.org/2000/svg">
<g filter="url(#filter0_d_36_8870)">
<path d="M-6.65742 552.892C-4.71473 463.491 -14.4282 289.204 9.85546 281.98C34.1391 274.756 27.3397 274.756 34.1391 274.756C38.6721 270.542 48.3208 262.474 50.652 263.919C52.9832 265.364 61.4733 259.743 65.2222 257.598C68.9711 255.453 76.4898 255.611 78.821 254.889C81.7351 253.986 84.3301 247.875 88.5345 245.859C92.7389 243.842 149.341 229.243 163.328 202.513C163.519 201.507 163.672 200.269 163.737 198.901C163.999 193.308 167.284 183.7 163.328 176.228C159.372 168.755 152.643 156.458 152.643 156.458C148.758 155.555 140.793 152.304 140.016 146.524C140.987 142.912 140.695 136.409 140.016 133.882C138.073 126.657 134.835 124.55 134.188 120.336C135.159 115.821 137.043 110.718 136.13 108.597C134.188 104.081 129.331 82.4085 128.36 74.2811C125.122 70.97 120.589 63.0834 128.36 58.0264C136.13 46.8889 152.838 23.8915 157.5 21.0018C162.163 18.112 169.804 17.9916 173.042 18.2927L174.013 13.7774H185.669C185.345 12.5734 185.281 9.62343 187.612 7.45614C189.943 5.28884 219.019 11.3693 233.265 14.6805L264.348 31.8382C264.348 33.3433 265.32 36.1728 269.205 35.4504C273.09 34.7279 272.767 38.1595 272.119 39.9656V49.899L282.804 71.572C280.861 80.6024 281.832 94.1479 281.832 98.6631C281.185 101.372 279.568 107.696 280.861 109.5C282.804 112.209 282.804 120.336 277.947 130.27C278.918 137.795 277.947 152.665 266.291 151.942C267.262 155.254 267.456 162.598 260.463 165.488C254.28 168.043 255.739 183.487 257.726 193.482C257.987 194.794 258.257 196.012 258.52 197.094C272.119 209.135 300.871 233.035 307.087 232.313C314.858 231.41 392.566 261.21 394.509 261.21C396.063 261.21 403.099 259.404 408.107 260.307C413.116 261.21 428.625 278.771 431.42 282.883C434.214 286.995 442.381 360.632 445.99 367.769C449.599 374.906 448.321 442.36 449.875 444.527C451.818 447.236 457.646 478.843 456.675 481.552C455.703 484.261 463.474 552.892 465.417 552.892L-6.65742 552.892Z" fill="url(#paint0_linear_36_8870)"/>
<path d="M163.737 198.901C163.672 200.269 163.519 201.507 163.328 202.513C149.341 229.243 92.7389 243.842 88.5345 245.859C84.3301 247.875 81.7351 253.986 78.821 254.889C76.4898 255.611 68.9711 255.453 65.2222 257.598C61.4733 259.743 52.9832 265.364 50.652 263.919C48.3208 262.474 38.6721 270.542 34.1391 274.756C27.3397 274.756 34.1391 274.756 9.85546 281.98C-14.4282 289.204 -4.71473 463.491 -6.65742 552.892C151.348 552.892 466.971 552.892 465.417 552.892C463.474 552.892 455.703 484.261 456.675 481.552C457.646 478.843 451.818 447.236 449.875 444.527C448.321 442.36 449.599 374.906 445.99 367.769C442.381 360.632 434.214 286.995 431.42 282.883C428.625 278.771 413.116 261.21 408.107 260.307C403.099 259.404 396.063 261.21 394.509 261.21C392.566 261.21 314.858 231.41 307.087 232.313C300.871 233.035 272.119 209.135 258.52 197.094C258.257 196.012 257.987 194.794 257.726 193.482M163.737 198.901C163.999 193.308 167.284 183.7 163.328 176.228C159.372 168.755 152.643 156.458 152.643 156.458C148.758 155.555 140.793 152.304 140.016 146.524C140.987 142.912 140.695 136.409 140.016 133.882C138.073 126.657 134.835 124.55 134.188 120.336C135.159 115.821 137.043 110.718 136.13 108.597C134.188 104.081 129.331 82.4085 128.36 74.2811C125.122 70.97 120.589 63.0834 128.36 58.0264C136.13 46.8889 152.838 23.8915 157.5 21.0018C162.163 18.112 169.804 17.9916 173.042 18.2927L174.013 13.7774H185.669C185.345 12.5734 185.281 9.62343 187.612 7.45614C189.943 5.28884 219.019 11.3693 233.265 14.6805L264.348 31.8382C264.348 33.3433 265.32 36.1728 269.205 35.4504C273.09 34.7279 272.767 38.1595 272.119 39.9656V49.899L282.804 71.572C280.861 80.6024 281.832 94.1479 281.832 98.6631C281.185 101.372 279.568 107.696 280.861 109.5C282.804 112.209 282.804 120.336 277.947 130.27C278.918 137.795 277.947 152.665 266.291 151.942C267.262 155.254 267.456 162.598 260.463 165.488C254.28 168.043 255.739 183.487 257.726 193.482M163.737 198.901C174.08 192.88 207.359 183.368 257.726 193.482" stroke="black" stroke-width="2"/>
<path d="M252.692 91.4387C253.339 98.061 253.857 111.847 250.749 114.015" stroke="black"/>
<path d="M236.179 108.597C237.151 112.811 238.51 123.226 236.179 131.173C236.827 132.678 238.899 136.41 242.007 139.3" stroke="black"/>
<path d="M145.844 225.406C175.955 219.687 245.698 211.138 283.775 222.697" stroke="black"/>
<path d="M23.2654 285.677C23.2654 285.677 17.9807 311.61 26.5047 321.72C35.0287 331.83 64.6384 404.356 65.087 453.586" stroke="black"/>
<path d="M238.122 43.5778C242.007 45.9859 249.778 52.6082 249.778 59.8325" stroke="black"/>
<path d="M98.2485 408.406C98.8961 379.508 101.745 314.128 107.962 283.786" stroke="black"/>
<path d="M213.812 439.52C215.055 404.715 216.236 332.145 211.015 320.301C205.793 308.457 210.704 257.705 213.812 233.809" stroke="black"/>
<path d="M232.294 412.921C236.827 384.626 248.224 324.242 257.549 309.071" stroke="black"/>
<path d="M326.514 304.556C338.494 326.831 360.706 374.271 353.712 385.83" stroke="black"/>
<path d="M371.358 446.553C373.349 431.978 376.135 400.497 371.358 391.169" stroke="black"/>
<path d="M369.254 384.927C377.996 368.672 394.703 334.537 391.595 328.035C388.487 321.533 406.489 288 415.879 272.047" stroke="black"/>
<path d="M73.9644 540.25C75.2595 542.056 77.0727 546.932 73.9644 551.989" stroke="black"/>
<path d="M368.282 539.346C366.663 541.153 364.397 545.848 368.282 550.183" stroke="black"/>
</g>
<defs>
<filter id="filter0_d_36_8870" x="-15" y="0" width="494.098" height="567.892" filterUnits="userSpaceOnUse" color-interpolation-filters="sRGB">
<feFlood flood-opacity="0" result="BackgroundImageFix"/>
<feColorMatrix in="SourceAlpha" type="matrix" values="0 0 0 0 0 0 0 0 0 0 0 0 0 0 0 0 0 0 127 0" result="hardAlpha"/>
<feOffset dx="3" dy="4"/>
<feGaussianBlur stdDeviation="5"/>
<feComposite in2="hardAlpha" operator="out"/>
<feColorMatrix type="matrix" values="0 0 0 0 0.0584957 0 0 0 0 0.0567176 0 0 0 0 0.145622 0 0 0 0.4 0"/>
<feBlend mode="normal" in2="BackgroundImageFix" result="effect1_dropShadow_36_8870"/>
<feBlend mode="normal" in="SourceGraphic" in2="effect1_dropShadow_36_8870" result="shape"/>
</filter>
<linearGradient id="paint0_linear_36_8870" x1="158.829" y1="17.4164" x2="420.49" y2="863.23" gradientUnits="userSpaceOnUse">
<stop stop-color="#D8B88B"/>
<stop offset="1" stop-color="#726149"/>
</linearGradient>
</defs>
</svg>
