<svg width="548" height="28" viewBox="0 0 548 28" fill="none" xmlns="http://www.w3.org/2000/svg">
<path d="M8.46578 5.464C10.0658 5.464 11.5138 6.064 12.8098 7.264C12.7778 7.04 12.7618 6.912 12.7618 6.88C12.7298 6.56 12.7138 6.384 12.7138 6.352C12.7138 5.824 12.9778 5.56 13.5058 5.56C14.0818 5.56 14.3698 5.904 14.3698 6.592C14.3698 6.816 14.3618 6.984 14.3458 7.096L14.1778 8.248C14.1298 8.584 14.1058 8.944 14.1058 9.328C14.1058 9.632 14.1378 10.28 14.2018 11.272C14.2018 11.272 14.2018 11.344 14.2018 11.488C14.2018 12.208 13.9058 12.568 13.3138 12.568C12.7538 12.568 12.4738 12.176 12.4738 11.392V10.672C12.4738 9.568 12.1058 8.696 11.3698 8.056C10.6498 7.416 9.67378 7.096 8.44178 7.096C6.88978 7.096 5.67378 7.696 4.79378 8.896C3.91378 10.096 3.47378 11.744 3.47378 13.84C3.47378 16.064 3.92178 17.8 4.81778 19.048C5.72978 20.296 6.98578 20.92 8.58578 20.92C9.81778 20.92 10.7698 20.56 11.4418 19.84C12.1138 19.12 12.4498 18.096 12.4498 16.768C12.4498 16.224 12.3538 15.848 12.1618 15.64C11.9858 15.416 11.6658 15.304 11.2018 15.304C11.0738 15.304 10.8898 15.312 10.6498 15.328C10.4098 15.344 10.2258 15.352 10.0978 15.352C9.32978 15.352 8.94578 15.08 8.94578 14.536C8.94578 13.976 9.27378 13.696 9.92978 13.696C10.1378 13.696 10.3698 13.712 10.6258 13.744C11.6338 13.872 12.4418 13.936 13.0498 13.936C13.8338 13.936 14.6658 13.864 15.5458 13.72C15.7378 13.688 15.9538 13.672 16.1938 13.672C16.8338 13.672 17.1538 13.936 17.1538 14.464C17.1538 14.688 17.0658 14.88 16.8898 15.04C16.7298 15.2 16.5378 15.28 16.3138 15.28C16.1218 15.28 15.9778 15.272 15.8818 15.256C15.8498 15.256 15.7938 15.248 15.7138 15.232C15.6338 15.232 15.5698 15.232 15.5218 15.232C14.8178 15.232 14.4658 16.016 14.4658 17.584V19.504C14.4658 19.92 14.4818 20.296 14.5138 20.632C14.5458 20.968 14.5618 21.232 14.5618 21.424C14.5618 22.08 14.2738 22.408 13.6978 22.408C13.1378 22.408 12.8578 22.128 12.8578 21.568C12.8578 21.568 12.8738 21.376 12.9058 20.992C12.9218 20.848 12.9378 20.6 12.9538 20.248C12.5858 20.744 12.2978 21.088 12.0898 21.28C11.1618 22.112 9.87378 22.528 8.22578 22.528C6.16178 22.528 4.49778 21.76 3.23378 20.224C1.96978 18.688 1.33778 16.68 1.33778 14.2C1.33778 11.544 1.97778 9.424 3.25778 7.84C4.55378 6.256 6.28978 5.464 8.46578 5.464ZM28.1928 21.4V20.656C27.3448 21.824 26.0888 22.408 24.4248 22.408C22.5368 22.408 21.2248 21.824 20.4888 20.656C20.1688 20.144 19.9928 19.544 19.9608 18.856C19.9448 18.52 19.9368 17.816 19.9368 16.744V14.752C19.9368 12.56 19.7048 11.464 19.2408 11.464C19.1448 11.464 18.9928 11.488 18.7848 11.536C18.5768 11.568 18.4168 11.584 18.3048 11.584C17.7448 11.584 17.4648 11.32 17.4648 10.792C17.4648 10.28 17.8088 10.024 18.4968 10.024C18.6568 10.024 18.8888 10.04 19.1928 10.072C19.5128 10.104 19.7528 10.12 19.9128 10.12C20.0568 10.12 20.3048 10.096 20.6568 10.048C20.8968 10.016 21.0328 10 21.0648 10C21.5608 10 21.8088 10.304 21.8088 10.912V11.416L21.7848 12.976L21.7128 14.752V16.312C21.7128 17.704 21.8248 18.704 22.0488 19.312C22.4168 20.32 23.2968 20.824 24.6888 20.824C25.3768 20.824 25.9848 20.672 26.5128 20.368C27.0408 20.048 27.4088 19.632 27.6168 19.12C27.8728 18.496 28.0008 17.312 28.0008 15.568V14.248C28.0008 13.288 28.0008 12.768 28.0008 12.688C27.9208 11.92 27.7128 11.536 27.3768 11.536C27.2008 11.536 27.0568 11.552 26.9448 11.584H26.6568C26.0968 11.584 25.8168 11.336 25.8168 10.84C25.8168 10.28 26.1288 10 26.7528 10C26.8968 10 27.1128 10.016 27.4008 10.048C27.7048 10.08 27.9288 10.096 28.0728 10.096C28.2008 10.096 28.3928 10.088 28.6488 10.072C28.9048 10.04 29.0968 10.024 29.2248 10.024C29.7048 10.024 29.9448 10.28 29.9448 10.792C29.9448 11.016 29.9288 11.192 29.8968 11.32C29.8168 11.928 29.7768 12.824 29.7768 14.008V17.704C29.7768 18.68 29.7848 19.224 29.8008 19.336C29.8808 20.184 30.1048 20.608 30.4728 20.608C30.5848 20.608 30.7448 20.592 30.9528 20.56C31.1608 20.512 31.3208 20.488 31.4328 20.488C31.9768 20.488 32.2488 20.752 32.2488 21.28C32.2488 21.824 31.9128 22.096 31.2408 22.096C31.0968 22.096 30.8888 22.08 30.6168 22.048C30.2168 22 29.9688 21.976 29.8728 21.976C29.8248 21.976 29.6568 21.992 29.3688 22.024C29.1768 22.072 29.0088 22.096 28.8648 22.096C28.4168 22.096 28.1928 21.864 28.1928 21.4ZM37.0282 12.304L39.7882 20.416L42.7162 12.424C42.7962 12.2 42.8362 12.024 42.8362 11.896C42.8362 11.624 42.6522 11.488 42.2842 11.488C42.0922 11.488 41.9402 11.504 41.8282 11.536C41.5722 11.568 41.4042 11.584 41.3242 11.584C40.7962 11.584 40.5322 11.328 40.5322 10.816C40.5322 10.272 40.8762 10 41.5642 10C41.6602 10 41.8202 10.016 42.0442 10.048L42.9082 10.168C43.1322 10.2 43.3722 10.216 43.6282 10.216C43.9002 10.216 44.3002 10.184 44.8282 10.12C45.3562 10.056 45.7562 10.024 46.0282 10.024C46.7162 10.024 47.0602 10.288 47.0602 10.816C47.0602 11.328 46.7962 11.584 46.2682 11.584C46.1082 11.584 45.9882 11.568 45.9082 11.536C45.7002 11.488 45.5562 11.464 45.4762 11.464C45.1722 11.464 44.8602 11.872 44.5402 12.688L41.2762 20.848C40.5562 22.656 39.8762 23.968 39.2362 24.784C38.1482 26.176 36.7882 26.872 35.1562 26.872C34.1802 26.872 33.3562 26.624 32.6842 26.128C32.0282 25.632 31.7002 25.032 31.7002 24.328C31.7002 23.832 31.8442 23.424 32.1322 23.104C32.4202 22.8 32.7962 22.648 33.2602 22.648C33.6282 22.648 33.9322 22.752 34.1722 22.96C34.4122 23.184 34.5322 23.456 34.5322 23.776C34.5322 24.288 34.3002 24.616 33.8362 24.76C34.0762 25.112 34.5322 25.288 35.2042 25.288C36.0522 25.288 36.8122 24.968 37.4842 24.328C38.1722 23.704 38.5162 23 38.5162 22.216C38.5162 21.816 38.3002 21.072 37.8682 19.984L35.2282 13.312C35.2282 13.312 35.1322 13.056 34.9402 12.544C34.6682 11.824 34.3562 11.464 34.0042 11.464C33.9082 11.464 33.7322 11.488 33.4762 11.536C33.2362 11.584 33.0762 11.608 32.9962 11.608C32.4362 11.608 32.1562 11.352 32.1562 10.84C32.1562 10.296 32.5242 10.024 33.2602 10.024C33.5002 10.024 33.6842 10.032 33.8122 10.048L34.7722 10.168C34.7882 10.168 34.8522 10.168 34.9642 10.168C35.0762 10.184 35.1722 10.192 35.2522 10.192C35.8282 10.192 36.4442 10.16 37.1002 10.096C37.5962 10.048 37.9242 10.024 38.0842 10.024C38.7562 10.024 39.0922 10.288 39.0922 10.816C39.0922 11.344 38.7882 11.608 38.1802 11.608C38.0842 11.608 37.9322 11.592 37.7242 11.56C37.5162 11.512 37.3642 11.488 37.2682 11.488C37.0442 11.488 36.9322 11.6 36.9322 11.824C36.9322 11.952 36.9642 12.112 37.0282 12.304ZM56.3143 18.808V9.184C56.3143 8 55.9063 7.408 55.0903 7.408C54.9623 7.408 54.7943 7.424 54.5863 7.456C54.2823 7.504 54.0663 7.528 53.9383 7.528C53.4263 7.528 53.1703 7.264 53.1703 6.736C53.1703 6.176 53.5223 5.896 54.2263 5.896C54.3383 5.896 54.4583 5.904 54.5863 5.92L55.7623 6.064C56.1463 6.112 56.6263 6.136 57.2023 6.136C57.6023 6.136 58.0823 6.112 58.6423 6.064C59.9543 5.952 60.9463 5.896 61.6183 5.896C62.6423 5.896 63.5223 5.976 64.2583 6.136C65.3143 6.36 66.1383 6.856 66.7303 7.624C67.3383 8.392 67.6423 9.32 67.6423 10.408C67.6423 11.912 67.1223 13.064 66.0823 13.864C65.0583 14.664 63.5703 15.064 61.6183 15.064H59.9143C59.3863 15.064 59.0743 15.056 58.9783 15.04H58.9303C58.6743 15.04 58.5063 15.088 58.4263 15.184C58.3623 15.264 58.3303 15.464 58.3303 15.784V16.264C58.3303 18.296 58.3863 19.528 58.4983 19.96C58.6263 20.392 58.9783 20.608 59.5543 20.608C59.7303 20.608 59.8983 20.584 60.0583 20.536C60.4103 20.504 60.6263 20.488 60.7063 20.488C61.2023 20.488 61.4503 20.744 61.4503 21.256C61.4503 21.832 61.0983 22.12 60.3943 22.12C60.3943 22.12 60.2823 22.104 60.0583 22.072L58.8583 21.904C58.5223 21.856 58.0183 21.832 57.3463 21.832C56.7863 21.832 56.3303 21.856 55.9783 21.904L54.5863 22.096C54.5543 22.096 54.5063 22.104 54.4423 22.12C54.3783 22.12 54.3223 22.12 54.2743 22.12C53.5543 22.12 53.1943 21.84 53.1943 21.28C53.1943 21.056 53.2663 20.872 53.4103 20.728C53.5543 20.568 53.7303 20.488 53.9383 20.488C54.1143 20.488 54.3303 20.512 54.5863 20.56C54.6983 20.592 54.8663 20.608 55.0903 20.608C55.9063 20.608 56.3143 20.008 56.3143 18.808ZM58.4983 7.936C58.3863 8.096 58.3303 8.536 58.3303 9.256V12.808C58.3303 13.24 58.6343 13.488 59.2423 13.552C59.1943 13.552 59.6583 13.552 60.6343 13.552C61.7703 13.552 62.7143 13.464 63.4663 13.288C64.8903 12.952 65.6023 12.016 65.6023 10.48C65.6023 8.448 64.3063 7.432 61.7143 7.432C59.7943 7.432 58.7223 7.6 58.4983 7.936ZM79.4765 14.944C79.4765 15.552 79.4365 15.928 79.3565 16.072C79.2765 16.2 79.0445 16.264 78.6605 16.264H71.0285C70.8205 16.264 70.6845 16.296 70.6205 16.36C70.5565 16.408 70.5245 16.496 70.5245 16.624C70.5245 17.824 70.8845 18.824 71.6045 19.624C72.3245 20.424 73.2205 20.824 74.2925 20.824C74.9965 20.824 75.6365 20.632 76.2125 20.248C76.8045 19.864 77.1885 19.376 77.3645 18.784L77.5805 18.088C77.6925 17.704 77.9565 17.512 78.3725 17.512C78.9645 17.512 79.2605 17.816 79.2605 18.424C79.2605 19.464 78.7325 20.392 77.6765 21.208C76.6205 22.008 75.4205 22.408 74.0765 22.408C72.3965 22.408 71.0605 21.848 70.0685 20.728C69.0765 19.592 68.5805 18.072 68.5805 16.168C68.5805 14.216 69.1085 12.632 70.1645 11.416C71.2205 10.2 72.5965 9.592 74.2925 9.592C75.7965 9.592 77.0365 10.096 78.0125 11.104C78.9885 12.112 79.4765 13.392 79.4765 14.944ZM70.7645 14.32C70.7645 14.544 70.9405 14.656 71.2925 14.656H77.0285C77.3645 14.656 77.5325 14.544 77.5325 14.32C77.5325 13.472 77.2125 12.736 76.5725 12.112C75.9325 11.488 75.1805 11.176 74.3165 11.176C73.4205 11.176 72.6045 11.504 71.8685 12.16C71.1325 12.8 70.7645 13.52 70.7645 14.32ZM91.5802 22.312C90.2682 22.312 89.4602 21.744 89.1562 20.608C88.3402 21.808 87.0602 22.408 85.3162 22.408C84.0202 22.408 82.9802 22.088 82.1962 21.448C81.4282 20.808 81.0442 19.952 81.0442 18.88C81.0442 17.552 81.6122 16.576 82.7482 15.952C83.1802 15.712 83.5482 15.56 83.8522 15.496C84.1722 15.416 84.8042 15.32 85.7482 15.208C87.0922 15.064 87.9642 14.864 88.3642 14.608C88.7802 14.352 88.9882 13.88 88.9882 13.192C88.9882 12.536 88.7562 12.024 88.2922 11.656C87.8442 11.272 87.2122 11.08 86.3962 11.08C85.6762 11.08 85.0042 11.28 84.3802 11.68C84.1402 11.84 84.0202 12.008 84.0202 12.184C84.0202 12.248 84.0922 12.328 84.2362 12.424C84.4602 12.584 84.5722 12.856 84.5722 13.24C84.5722 13.56 84.4522 13.824 84.2122 14.032C83.9882 14.24 83.7002 14.344 83.3482 14.344C82.9322 14.344 82.5802 14.2 82.2922 13.912C82.0202 13.624 81.8842 13.272 81.8842 12.856C81.8842 11.96 82.3242 11.192 83.2042 10.552C84.1002 9.912 85.1802 9.592 86.4442 9.592C89.3562 9.592 90.8122 10.992 90.8122 13.792V18.64C90.8122 19.408 90.8282 19.864 90.8602 20.008C90.9562 20.568 91.2282 20.848 91.6762 20.848C92.2362 20.848 92.5162 20.336 92.5162 19.312V18.136C92.5162 17.624 92.7642 17.368 93.2602 17.368C93.7882 17.368 94.0522 17.752 94.0522 18.52V18.64L94.0282 20.008C93.9962 21.544 93.1802 22.312 91.5802 22.312ZM88.9162 17.536L88.9402 15.832C88.5882 16.152 88.2122 16.376 87.8122 16.504C87.4282 16.632 86.7322 16.744 85.7242 16.84C83.9002 17.016 82.9882 17.688 82.9882 18.856C82.9882 19.464 83.2042 19.944 83.6362 20.296C84.0842 20.648 84.6842 20.824 85.4362 20.824C86.5082 20.824 87.3482 20.536 87.9562 19.96C88.5802 19.368 88.9002 18.56 88.9162 17.536ZM98.4311 10.696V11.344C99.2631 10.176 100.375 9.592 101.767 9.592C102.887 9.592 103.791 9.912 104.479 10.552C105.183 11.176 105.535 11.984 105.535 12.976C105.535 13.68 105.359 14.256 105.007 14.704C104.655 15.136 104.191 15.352 103.615 15.352C103.247 15.352 102.935 15.24 102.679 15.016C102.423 14.792 102.295 14.52 102.295 14.2C102.295 13.944 102.391 13.72 102.583 13.528C102.775 13.32 102.999 13.216 103.255 13.216C103.303 13.216 103.407 13.24 103.567 13.288C103.663 13.096 103.711 12.92 103.711 12.76C103.711 12.296 103.503 11.904 103.087 11.584C102.687 11.264 102.183 11.104 101.575 11.104C100.327 11.104 99.4951 11.664 99.0791 12.784C98.8231 13.472 98.6951 14.512 98.6951 15.904V17.488C98.6951 18.56 98.7031 19.16 98.7191 19.288C98.7991 20.2 99.0471 20.656 99.4631 20.656C99.6711 20.656 99.8871 20.624 100.111 20.56C100.287 20.512 100.439 20.488 100.567 20.488C101.079 20.488 101.335 20.744 101.335 21.256C101.335 21.816 101.007 22.096 100.351 22.096H100.255C100.015 22.096 99.6471 22.064 99.1511 22C98.6711 21.952 98.3111 21.928 98.0711 21.928C97.4311 21.928 96.9271 21.944 96.5591 21.976L95.2151 22.096C94.5591 22.096 94.2311 21.816 94.2311 21.256C94.2311 20.76 94.5351 20.512 95.1431 20.512C95.3031 20.512 95.4231 20.52 95.5031 20.536L95.8631 20.608C96.0231 20.64 96.1351 20.656 96.1991 20.656C96.5991 20.656 96.8151 20.288 96.8471 19.552L96.8951 18.328L96.8231 12.88C96.7751 11.936 96.5351 11.464 96.1031 11.464C95.9751 11.464 95.7991 11.488 95.5751 11.536C95.3511 11.584 95.1751 11.608 95.0471 11.608C94.5191 11.608 94.2551 11.352 94.2551 10.84C94.2551 10.28 94.5991 10 95.2871 10C95.4471 10 95.6871 10.024 96.0071 10.072C96.3271 10.104 96.5671 10.12 96.7271 10.12C96.8551 10.12 97.0631 10.104 97.3511 10.072C97.4791 10.04 97.6311 10.024 97.8071 10.024C98.2231 10.024 98.4311 10.248 98.4311 10.696ZM113.58 14.08C113.58 13.44 113.98 13.072 114.78 12.976C114.7 12.416 114.428 11.976 113.964 11.656C113.516 11.336 112.932 11.176 112.212 11.176C111.108 11.176 110.22 11.616 109.548 12.496C108.876 13.376 108.54 14.544 108.54 16C108.54 17.504 108.852 18.688 109.476 19.552C110.116 20.4 110.996 20.824 112.116 20.824C112.82 20.824 113.428 20.624 113.94 20.224C114.468 19.824 114.828 19.272 115.02 18.568C115.18 18.008 115.276 17.688 115.308 17.608C115.484 17.288 115.74 17.128 116.076 17.128C116.348 17.128 116.572 17.216 116.748 17.392C116.924 17.568 117.012 17.792 117.012 18.064C117.012 18.464 116.884 18.944 116.628 19.504C116.372 20.064 116.068 20.528 115.716 20.896C114.772 21.904 113.548 22.408 112.044 22.408C110.412 22.408 109.092 21.832 108.084 20.68C107.092 19.528 106.596 18.016 106.596 16.144C106.596 14.16 107.108 12.576 108.132 11.392C109.172 10.192 110.548 9.592 112.26 9.592C113.54 9.592 114.604 9.944 115.452 10.648C116.3 11.336 116.724 12.216 116.724 13.288C116.724 13.88 116.556 14.368 116.22 14.752C115.9 15.136 115.484 15.328 114.972 15.328C114.572 15.328 114.236 15.208 113.964 14.968C113.708 14.728 113.58 14.432 113.58 14.08ZM129.727 14.944C129.727 15.552 129.687 15.928 129.607 16.072C129.527 16.2 129.295 16.264 128.911 16.264H121.279C121.071 16.264 120.935 16.296 120.871 16.36C120.807 16.408 120.775 16.496 120.775 16.624C120.775 17.824 121.135 18.824 121.855 19.624C122.575 20.424 123.471 20.824 124.543 20.824C125.247 20.824 125.887 20.632 126.463 20.248C127.055 19.864 127.439 19.376 127.615 18.784L127.831 18.088C127.943 17.704 128.207 17.512 128.623 17.512C129.215 17.512 129.511 17.816 129.511 18.424C129.511 19.464 128.983 20.392 127.927 21.208C126.871 22.008 125.671 22.408 124.327 22.408C122.647 22.408 121.311 21.848 120.319 20.728C119.327 19.592 118.831 18.072 118.831 16.168C118.831 14.216 119.359 12.632 120.415 11.416C121.471 10.2 122.847 9.592 124.543 9.592C126.047 9.592 127.287 10.096 128.263 11.104C129.239 12.112 129.727 13.392 129.727 14.944ZM121.015 14.32C121.015 14.544 121.191 14.656 121.543 14.656H127.279C127.615 14.656 127.783 14.544 127.783 14.32C127.783 13.472 127.463 12.736 126.823 12.112C126.183 11.488 125.431 11.176 124.567 11.176C123.671 11.176 122.855 11.504 122.119 12.16C121.383 12.8 121.015 13.52 121.015 14.32Z" fill="#D8B88B"/>
<line x1="141.5" y1="2" x2="141.5" y2="26" stroke="#D8B88B"/>
<path d="M159.182 5.464C160.958 5.464 162.406 6.144 163.526 7.504L163.502 7.24C163.502 7.16 163.502 7.072 163.502 6.976C163.486 6.88 163.478 6.824 163.478 6.808C163.446 6.456 163.43 6.296 163.43 6.328C163.43 5.784 163.686 5.512 164.198 5.512C164.742 5.512 165.014 5.848 165.014 6.52C165.014 6.648 164.982 7.032 164.918 7.672C164.838 8.472 164.798 9.024 164.798 9.328C164.798 9.76 164.822 10.2 164.87 10.648L164.966 11.56V11.8C164.966 12.52 164.678 12.88 164.102 12.88C163.478 12.88 163.174 12.536 163.19 11.848L163.214 10.984C163.246 9.832 162.886 8.896 162.134 8.176C161.382 7.456 160.398 7.096 159.182 7.096C157.598 7.096 156.358 7.704 155.462 8.92C154.566 10.136 154.118 11.816 154.118 13.96C154.118 16.152 154.574 17.864 155.486 19.096C156.414 20.312 157.702 20.92 159.35 20.92C160.246 20.92 161.046 20.704 161.75 20.272C162.47 19.84 162.974 19.272 163.262 18.568C163.454 18.104 163.55 17.48 163.55 16.696C163.55 15.96 163.854 15.592 164.462 15.592C165.118 15.592 165.446 15.96 165.446 16.696C165.446 18.408 164.854 19.808 163.67 20.896C162.486 21.984 160.958 22.528 159.086 22.528C156.926 22.528 155.198 21.768 153.902 20.248C152.622 18.728 151.982 16.704 151.982 14.176C151.982 11.568 152.638 9.464 153.95 7.864C155.278 6.264 157.022 5.464 159.182 5.464ZM177.608 22.312C176.296 22.312 175.488 21.744 175.184 20.608C174.368 21.808 173.088 22.408 171.344 22.408C170.048 22.408 169.008 22.088 168.224 21.448C167.456 20.808 167.072 19.952 167.072 18.88C167.072 17.552 167.64 16.576 168.776 15.952C169.208 15.712 169.576 15.56 169.88 15.496C170.2 15.416 170.832 15.32 171.776 15.208C173.12 15.064 173.992 14.864 174.392 14.608C174.808 14.352 175.016 13.88 175.016 13.192C175.016 12.536 174.784 12.024 174.32 11.656C173.872 11.272 173.24 11.08 172.424 11.08C171.704 11.08 171.032 11.28 170.408 11.68C170.168 11.84 170.048 12.008 170.048 12.184C170.048 12.248 170.12 12.328 170.264 12.424C170.488 12.584 170.6 12.856 170.6 13.24C170.6 13.56 170.48 13.824 170.24 14.032C170.016 14.24 169.728 14.344 169.376 14.344C168.96 14.344 168.608 14.2 168.32 13.912C168.048 13.624 167.912 13.272 167.912 12.856C167.912 11.96 168.352 11.192 169.232 10.552C170.128 9.912 171.208 9.592 172.472 9.592C175.384 9.592 176.84 10.992 176.84 13.792V18.64C176.84 19.408 176.856 19.864 176.888 20.008C176.984 20.568 177.256 20.848 177.704 20.848C178.264 20.848 178.544 20.336 178.544 19.312V18.136C178.544 17.624 178.792 17.368 179.288 17.368C179.816 17.368 180.08 17.752 180.08 18.52V18.64L180.056 20.008C180.024 21.544 179.208 22.312 177.608 22.312ZM174.944 17.536L174.968 15.832C174.616 16.152 174.24 16.376 173.84 16.504C173.456 16.632 172.76 16.744 171.752 16.84C169.928 17.016 169.016 17.688 169.016 18.856C169.016 19.464 169.232 19.944 169.664 20.296C170.112 20.648 170.712 20.824 171.464 20.824C172.536 20.824 173.376 20.536 173.984 19.96C174.608 19.368 174.928 18.56 174.944 17.536ZM184.458 10.696V11.344C185.29 10.176 186.402 9.592 187.794 9.592C188.914 9.592 189.818 9.912 190.506 10.552C191.21 11.176 191.562 11.984 191.562 12.976C191.562 13.68 191.386 14.256 191.034 14.704C190.682 15.136 190.218 15.352 189.642 15.352C189.274 15.352 188.962 15.24 188.706 15.016C188.45 14.792 188.322 14.52 188.322 14.2C188.322 13.944 188.418 13.72 188.61 13.528C188.802 13.32 189.026 13.216 189.282 13.216C189.33 13.216 189.434 13.24 189.594 13.288C189.69 13.096 189.738 12.92 189.738 12.76C189.738 12.296 189.53 11.904 189.114 11.584C188.714 11.264 188.21 11.104 187.602 11.104C186.354 11.104 185.522 11.664 185.106 12.784C184.85 13.472 184.722 14.512 184.722 15.904V17.488C184.722 18.56 184.73 19.16 184.746 19.288C184.826 20.2 185.074 20.656 185.49 20.656C185.698 20.656 185.914 20.624 186.138 20.56C186.314 20.512 186.466 20.488 186.594 20.488C187.106 20.488 187.362 20.744 187.362 21.256C187.362 21.816 187.034 22.096 186.378 22.096H186.282C186.042 22.096 185.674 22.064 185.178 22C184.698 21.952 184.338 21.928 184.098 21.928C183.458 21.928 182.954 21.944 182.586 21.976L181.242 22.096C180.586 22.096 180.258 21.816 180.258 21.256C180.258 20.76 180.562 20.512 181.17 20.512C181.33 20.512 181.45 20.52 181.53 20.536L181.89 20.608C182.05 20.64 182.162 20.656 182.226 20.656C182.626 20.656 182.842 20.288 182.874 19.552L182.922 18.328L182.85 12.88C182.802 11.936 182.562 11.464 182.13 11.464C182.002 11.464 181.826 11.488 181.602 11.536C181.378 11.584 181.202 11.608 181.074 11.608C180.546 11.608 180.282 11.352 180.282 10.84C180.282 10.28 180.626 10 181.314 10C181.474 10 181.714 10.024 182.034 10.072C182.354 10.104 182.594 10.12 182.754 10.12C182.882 10.12 183.09 10.104 183.378 10.072C183.506 10.04 183.658 10.024 183.834 10.024C184.25 10.024 184.458 10.248 184.458 10.696ZM196.576 10.696V11.344C197.408 10.176 198.52 9.592 199.912 9.592C201.032 9.592 201.936 9.912 202.624 10.552C203.328 11.176 203.68 11.984 203.68 12.976C203.68 13.68 203.504 14.256 203.152 14.704C202.8 15.136 202.336 15.352 201.76 15.352C201.392 15.352 201.08 15.24 200.824 15.016C200.568 14.792 200.44 14.52 200.44 14.2C200.44 13.944 200.536 13.72 200.728 13.528C200.92 13.32 201.144 13.216 201.4 13.216C201.448 13.216 201.552 13.24 201.712 13.288C201.808 13.096 201.856 12.92 201.856 12.76C201.856 12.296 201.648 11.904 201.232 11.584C200.832 11.264 200.328 11.104 199.72 11.104C198.472 11.104 197.64 11.664 197.224 12.784C196.968 13.472 196.84 14.512 196.84 15.904V17.488C196.84 18.56 196.848 19.16 196.864 19.288C196.944 20.2 197.192 20.656 197.608 20.656C197.816 20.656 198.032 20.624 198.256 20.56C198.432 20.512 198.584 20.488 198.712 20.488C199.224 20.488 199.48 20.744 199.48 21.256C199.48 21.816 199.152 22.096 198.496 22.096H198.4C198.16 22.096 197.792 22.064 197.296 22C196.816 21.952 196.456 21.928 196.216 21.928C195.576 21.928 195.072 21.944 194.704 21.976L193.36 22.096C192.704 22.096 192.376 21.816 192.376 21.256C192.376 20.76 192.68 20.512 193.288 20.512C193.448 20.512 193.568 20.52 193.648 20.536L194.008 20.608C194.168 20.64 194.28 20.656 194.344 20.656C194.744 20.656 194.96 20.288 194.992 19.552L195.04 18.328L194.968 12.88C194.92 11.936 194.68 11.464 194.248 11.464C194.12 11.464 193.944 11.488 193.72 11.536C193.496 11.584 193.32 11.608 193.192 11.608C192.664 11.608 192.4 11.352 192.4 10.84C192.4 10.28 192.744 10 193.432 10C193.592 10 193.832 10.024 194.152 10.072C194.472 10.104 194.712 10.12 194.872 10.12C195 10.12 195.208 10.104 195.496 10.072C195.624 10.04 195.776 10.024 195.952 10.024C196.368 10.024 196.576 10.248 196.576 10.696ZM208.629 15.04V18.16C208.629 18.96 208.637 19.432 208.653 19.576C208.733 20.296 208.949 20.656 209.301 20.656C209.381 20.656 209.581 20.616 209.901 20.536C209.981 20.504 210.101 20.488 210.261 20.488C210.869 20.488 211.173 20.752 211.173 21.28C211.173 21.504 211.069 21.696 210.861 21.856C210.669 22.016 210.421 22.096 210.117 22.096C209.861 22.096 209.469 22.064 208.941 22C208.429 21.92 208.045 21.88 207.789 21.88C207.373 21.88 206.909 21.912 206.397 21.976C205.773 22.056 205.357 22.096 205.149 22.096C204.509 22.096 204.189 21.824 204.189 21.28C204.189 20.752 204.461 20.488 205.005 20.488C205.133 20.488 205.317 20.512 205.557 20.56C205.813 20.608 206.005 20.632 206.133 20.632C206.517 20.632 206.749 20.12 206.829 19.096C206.829 19.032 206.829 18.336 206.829 17.008V15.04C206.829 13.712 206.829 13.016 206.829 12.952C206.749 11.944 206.509 11.44 206.109 11.44C205.981 11.44 205.797 11.472 205.557 11.536C205.333 11.584 205.165 11.608 205.053 11.608C204.477 11.608 204.189 11.352 204.189 10.84C204.189 10.296 204.541 10.024 205.245 10.024C205.549 10.024 205.765 10.032 205.893 10.048C206.405 10.112 206.733 10.144 206.877 10.144C207.005 10.144 207.197 10.128 207.453 10.096C207.725 10.048 207.925 10.024 208.053 10.024C208.517 10.024 208.749 10.336 208.749 10.96C208.749 11.024 208.741 11.12 208.725 11.248C208.709 11.376 208.701 11.472 208.701 11.536C208.685 11.664 208.669 12.16 208.653 13.024C208.637 13.68 208.629 14.352 208.629 15.04ZM207.381 8.752C207.013 8.752 206.693 8.624 206.421 8.368C206.165 8.096 206.037 7.776 206.037 7.408C206.037 7.04 206.165 6.728 206.421 6.472C206.693 6.216 207.013 6.088 207.381 6.088C207.749 6.088 208.061 6.216 208.317 6.472C208.589 6.728 208.725 7.04 208.725 7.408C208.725 7.776 208.589 8.096 208.317 8.368C208.061 8.624 207.749 8.752 207.381 8.752ZM223.066 14.944C223.066 15.552 223.026 15.928 222.946 16.072C222.866 16.2 222.634 16.264 222.25 16.264H214.618C214.41 16.264 214.274 16.296 214.21 16.36C214.146 16.408 214.114 16.496 214.114 16.624C214.114 17.824 214.474 18.824 215.194 19.624C215.914 20.424 216.81 20.824 217.882 20.824C218.586 20.824 219.226 20.632 219.802 20.248C220.394 19.864 220.778 19.376 220.954 18.784L221.17 18.088C221.282 17.704 221.546 17.512 221.962 17.512C222.554 17.512 222.85 17.816 222.85 18.424C222.85 19.464 222.322 20.392 221.266 21.208C220.21 22.008 219.01 22.408 217.666 22.408C215.986 22.408 214.65 21.848 213.658 20.728C212.666 19.592 212.17 18.072 212.17 16.168C212.17 14.216 212.698 12.632 213.754 11.416C214.81 10.2 216.186 9.592 217.882 9.592C219.386 9.592 220.626 10.096 221.602 11.104C222.578 12.112 223.066 13.392 223.066 14.944ZM214.354 14.32C214.354 14.544 214.53 14.656 214.882 14.656H220.618C220.954 14.656 221.122 14.544 221.122 14.32C221.122 13.472 220.802 12.736 220.162 12.112C219.522 11.488 218.77 11.176 217.906 11.176C217.01 11.176 216.194 11.504 215.458 12.16C214.722 12.8 214.354 13.52 214.354 14.32ZM224.802 15.592C224.802 15.032 225.122 14.752 225.762 14.752H229.506C230.146 14.752 230.466 15.024 230.466 15.568C230.466 16.144 230.146 16.432 229.506 16.432H225.762C225.122 16.432 224.802 16.152 224.802 15.592ZM243.872 19.288L243.008 16.936C242.912 16.68 242.808 16.52 242.696 16.456C242.6 16.392 242.392 16.36 242.072 16.36H237.8C237.48 16.36 237.256 16.416 237.128 16.528C237.016 16.64 236.864 16.944 236.672 17.44L235.976 19.288C235.912 19.464 235.88 19.632 235.88 19.792C235.88 20.304 236.192 20.56 236.816 20.56C236.976 20.56 237.2 20.544 237.488 20.512C237.792 20.48 238.016 20.464 238.16 20.464C238.816 20.464 239.144 20.744 239.144 21.304C239.144 21.832 238.784 22.096 238.064 22.096C237.936 22.096 237.76 22.08 237.536 22.048L236.336 21.88C236.112 21.848 235.744 21.832 235.232 21.832C234.672 21.832 234.28 21.848 234.056 21.88L233.048 22.024C232.6 22.088 232.272 22.12 232.064 22.12C231.44 22.12 231.128 21.856 231.128 21.328C231.128 20.768 231.432 20.488 232.04 20.488C232.168 20.488 232.264 20.496 232.328 20.512H232.64C233.072 20.512 233.4 20.344 233.624 20.008C233.72 19.88 233.88 19.504 234.104 18.88L238.568 6.808C238.824 6.136 239.328 5.8 240.08 5.8C240.816 5.8 241.304 6.136 241.544 6.808L245.84 18.712C246.112 19.464 246.36 19.96 246.584 20.2C246.808 20.44 247.128 20.56 247.544 20.56C247.672 20.56 247.768 20.552 247.832 20.536C248.28 20.504 248.504 20.488 248.504 20.488C249.112 20.488 249.416 20.744 249.416 21.256C249.416 21.8 249.112 22.072 248.504 22.072C248.328 22.072 248.096 22.056 247.808 22.024C246.8 21.912 246.048 21.856 245.552 21.856C244.96 21.856 244 21.92 242.672 22.048C242.336 22.08 242.08 22.096 241.904 22.096C241.264 22.096 240.944 21.824 240.944 21.28C240.944 20.736 241.296 20.464 242 20.464C242.144 20.464 242.352 20.48 242.624 20.512C242.912 20.544 243.128 20.56 243.272 20.56C243.8 20.56 244.064 20.344 244.064 19.912C244.064 19.848 244 19.64 243.872 19.288ZM242.144 14.392L239.984 7.768L237.776 14.392C237.744 14.488 237.728 14.544 237.728 14.56C237.728 14.704 237.848 14.776 238.088 14.776H241.904C242.096 14.776 242.192 14.712 242.192 14.584C242.192 14.552 242.176 14.488 242.144 14.392ZM253.835 10.744V11.416C254.795 10.2 256.075 9.592 257.675 9.592C258.539 9.592 259.355 9.816 260.123 10.264C260.891 10.696 261.411 11.24 261.683 11.896C261.907 12.44 262.019 13.152 262.019 14.032V18.592C262.019 19.28 262.027 19.688 262.043 19.816C262.123 20.36 262.339 20.632 262.691 20.632C262.835 20.632 263.019 20.616 263.243 20.584C263.483 20.536 263.651 20.512 263.747 20.512C263.955 20.512 264.131 20.584 264.275 20.728C264.435 20.872 264.515 21.048 264.515 21.256C264.515 21.496 264.419 21.696 264.227 21.856C264.035 22.016 263.803 22.096 263.531 22.096C263.307 22.096 262.939 22.064 262.427 22C261.915 21.936 261.435 21.904 260.987 21.904C260.571 21.904 260.227 21.92 259.955 21.952C259.155 22.048 258.731 22.096 258.683 22.096C258.043 22.096 257.723 21.816 257.723 21.256C257.723 20.76 257.995 20.512 258.539 20.512C258.667 20.512 258.811 20.528 258.971 20.56C259.275 20.624 259.467 20.656 259.547 20.656C259.931 20.656 260.139 20.216 260.171 19.336L260.219 18.112L260.243 16.648V14.824C260.243 13.976 260.203 13.392 260.123 13.072C259.979 12.464 259.667 11.992 259.187 11.656C258.659 11.288 258.059 11.104 257.387 11.104C256.107 11.104 255.187 11.56 254.627 12.472C254.243 13.096 254.051 14.16 254.051 15.664V18.856C254.051 19.56 254.099 20.04 254.195 20.296C254.291 20.552 254.467 20.68 254.723 20.68C254.851 20.68 255.027 20.648 255.251 20.584C255.475 20.52 255.659 20.488 255.803 20.488C256.299 20.488 256.547 20.76 256.547 21.304C256.547 21.832 256.227 22.096 255.587 22.096C255.459 22.096 255.043 22.048 254.339 21.952C253.987 21.904 253.595 21.88 253.163 21.88C252.827 21.88 252.379 21.912 251.819 21.976C251.115 22.056 250.715 22.096 250.619 22.096C249.947 22.096 249.611 21.824 249.611 21.28C249.611 20.768 249.867 20.512 250.379 20.512C250.459 20.512 250.603 20.536 250.811 20.584C251.035 20.632 251.251 20.656 251.459 20.656C251.939 20.656 252.187 20.192 252.203 19.264L252.251 16.6V13.696L252.203 12.856C252.171 12.312 252.099 11.944 251.987 11.752C251.891 11.544 251.715 11.44 251.459 11.44C251.347 11.44 251.179 11.464 250.955 11.512C250.747 11.544 250.587 11.56 250.475 11.56C249.899 11.56 249.611 11.304 249.611 10.792C249.611 10.264 249.971 10 250.691 10C250.787 10 250.867 10.008 250.931 10.024L251.819 10.12C252.075 10.12 252.299 10.104 252.491 10.072C252.907 10.04 253.123 10.024 253.139 10.024C253.603 10.024 253.835 10.264 253.835 10.744ZM269.116 10.744V11.416C270.076 10.2 271.356 9.592 272.956 9.592C273.82 9.592 274.636 9.816 275.404 10.264C276.172 10.696 276.692 11.24 276.964 11.896C277.188 12.44 277.3 13.152 277.3 14.032V18.592C277.3 19.28 277.308 19.688 277.324 19.816C277.404 20.36 277.62 20.632 277.972 20.632C278.116 20.632 278.3 20.616 278.524 20.584C278.764 20.536 278.932 20.512 279.028 20.512C279.236 20.512 279.412 20.584 279.556 20.728C279.716 20.872 279.796 21.048 279.796 21.256C279.796 21.496 279.7 21.696 279.508 21.856C279.316 22.016 279.084 22.096 278.812 22.096C278.588 22.096 278.22 22.064 277.708 22C277.196 21.936 276.716 21.904 276.268 21.904C275.852 21.904 275.508 21.92 275.236 21.952C274.436 22.048 274.012 22.096 273.964 22.096C273.324 22.096 273.004 21.816 273.004 21.256C273.004 20.76 273.276 20.512 273.82 20.512C273.948 20.512 274.092 20.528 274.252 20.56C274.556 20.624 274.748 20.656 274.828 20.656C275.212 20.656 275.42 20.216 275.452 19.336L275.5 18.112L275.524 16.648V14.824C275.524 13.976 275.484 13.392 275.404 13.072C275.26 12.464 274.948 11.992 274.468 11.656C273.94 11.288 273.34 11.104 272.668 11.104C271.388 11.104 270.468 11.56 269.908 12.472C269.524 13.096 269.332 14.16 269.332 15.664V18.856C269.332 19.56 269.38 20.04 269.476 20.296C269.572 20.552 269.748 20.68 270.004 20.68C270.132 20.68 270.308 20.648 270.532 20.584C270.756 20.52 270.94 20.488 271.084 20.488C271.58 20.488 271.828 20.76 271.828 21.304C271.828 21.832 271.508 22.096 270.868 22.096C270.74 22.096 270.324 22.048 269.62 21.952C269.268 21.904 268.876 21.88 268.444 21.88C268.108 21.88 267.66 21.912 267.1 21.976C266.396 22.056 265.996 22.096 265.9 22.096C265.228 22.096 264.892 21.824 264.892 21.28C264.892 20.768 265.148 20.512 265.66 20.512C265.74 20.512 265.884 20.536 266.092 20.584C266.316 20.632 266.532 20.656 266.74 20.656C267.22 20.656 267.468 20.192 267.484 19.264L267.532 16.6V13.696L267.484 12.856C267.452 12.312 267.38 11.944 267.268 11.752C267.172 11.544 266.996 11.44 266.74 11.44C266.628 11.44 266.46 11.464 266.236 11.512C266.028 11.544 265.868 11.56 265.756 11.56C265.18 11.56 264.892 11.304 264.892 10.792C264.892 10.264 265.252 10 265.972 10C266.068 10 266.148 10.008 266.212 10.024L267.1 10.12C267.356 10.12 267.58 10.104 267.772 10.072C268.188 10.04 268.404 10.024 268.42 10.024C268.884 10.024 269.116 10.264 269.116 10.744ZM291.621 14.944C291.621 15.552 291.581 15.928 291.501 16.072C291.421 16.2 291.189 16.264 290.805 16.264H283.173C282.965 16.264 282.829 16.296 282.765 16.36C282.701 16.408 282.669 16.496 282.669 16.624C282.669 17.824 283.029 18.824 283.749 19.624C284.469 20.424 285.365 20.824 286.437 20.824C287.141 20.824 287.781 20.632 288.357 20.248C288.949 19.864 289.333 19.376 289.509 18.784L289.725 18.088C289.837 17.704 290.101 17.512 290.517 17.512C291.109 17.512 291.405 17.816 291.405 18.424C291.405 19.464 290.877 20.392 289.821 21.208C288.765 22.008 287.565 22.408 286.221 22.408C284.541 22.408 283.205 21.848 282.213 20.728C281.221 19.592 280.725 18.072 280.725 16.168C280.725 14.216 281.253 12.632 282.309 11.416C283.365 10.2 284.741 9.592 286.437 9.592C287.941 9.592 289.181 10.096 290.157 11.104C291.133 12.112 291.621 13.392 291.621 14.944ZM282.909 14.32C282.909 14.544 283.085 14.656 283.437 14.656H289.173C289.509 14.656 289.677 14.544 289.677 14.32C289.677 13.472 289.357 12.736 288.717 12.112C288.077 11.488 287.325 11.176 286.461 11.176C285.565 11.176 284.749 11.504 284.013 12.16C283.277 12.8 282.909 13.52 282.909 14.32ZM306.125 7.696L309.821 19.84L313.877 6.904C314.085 6.232 314.445 5.896 314.957 5.896H315.077C315.237 5.896 315.445 5.92 315.701 5.968C316.021 6.048 316.229 6.088 316.325 6.088C316.581 6.12 316.933 6.136 317.381 6.136C317.861 6.136 318.237 6.112 318.509 6.064L319.349 5.92C319.397 5.904 319.493 5.896 319.637 5.896C320.373 5.896 320.741 6.176 320.741 6.736C320.741 7.248 320.485 7.504 319.973 7.504C319.845 7.504 319.653 7.488 319.397 7.456C319.157 7.408 318.973 7.384 318.845 7.384C318.029 7.384 317.621 7.984 317.621 9.184V10.864L317.597 12.976V15.016L317.621 18.808C317.621 20.008 318.021 20.608 318.821 20.608C318.981 20.608 319.157 20.584 319.349 20.536C319.701 20.504 319.909 20.488 319.973 20.488C320.485 20.488 320.741 20.744 320.741 21.256C320.741 21.832 320.397 22.12 319.709 22.12C319.741 22.12 319.621 22.104 319.349 22.072C318.245 21.944 317.309 21.88 316.541 21.88C315.789 21.88 315.069 21.936 314.381 22.048C314.093 22.096 313.837 22.12 313.613 22.12C312.989 22.12 312.677 21.856 312.677 21.328C312.677 20.784 312.997 20.512 313.637 20.512C313.797 20.512 313.917 20.52 313.997 20.536C314.349 20.568 314.557 20.584 314.621 20.584C315.197 20.584 315.557 19.984 315.701 18.784C315.733 18.528 315.749 17.712 315.749 16.336C315.749 15.808 315.757 15.04 315.773 14.032L315.821 11.872V7.624C315.821 7.528 315.781 7.48 315.701 7.48C315.653 7.48 315.605 7.528 315.557 7.624L311.141 21.328C310.949 21.936 310.501 22.24 309.797 22.24C309.381 22.24 309.069 22.176 308.861 22.048C308.669 21.936 308.517 21.696 308.405 21.328L304.061 7.624C304.013 7.528 303.957 7.48 303.893 7.48C303.829 7.48 303.797 7.528 303.797 7.624L303.941 18.784C303.957 19.952 304.277 20.536 304.901 20.536C305.077 20.536 305.317 20.504 305.621 20.44H305.909C306.533 20.44 306.845 20.72 306.845 21.28C306.845 21.84 306.525 22.12 305.885 22.12C305.773 22.12 305.605 22.104 305.381 22.072C305.029 22.024 304.653 21.968 304.253 21.904C303.933 21.856 303.525 21.832 303.029 21.832C302.149 21.832 301.581 21.856 301.325 21.904L300.317 22.096C300.285 22.096 300.237 22.104 300.173 22.12C300.109 22.12 300.061 22.12 300.029 22.12C299.293 22.12 298.925 21.84 298.925 21.28C298.925 21.056 298.997 20.872 299.141 20.728C299.285 20.568 299.461 20.488 299.669 20.488C299.845 20.488 300.053 20.512 300.293 20.56C300.533 20.608 300.709 20.632 300.821 20.632C301.637 20.632 302.045 20.032 302.045 18.832V9.184C302.045 7.984 301.637 7.384 300.821 7.384C300.693 7.384 300.501 7.408 300.245 7.456C299.989 7.488 299.797 7.504 299.669 7.504C299.173 7.504 298.925 7.248 298.925 6.736C298.925 6.176 299.285 5.896 300.005 5.896C300.069 5.896 300.173 5.904 300.317 5.92L301.157 6.016C301.573 6.064 301.965 6.088 302.333 6.088C302.637 6.088 303.045 6.056 303.557 5.992C304.085 5.928 304.469 5.896 304.709 5.896C305.333 5.896 305.749 6.288 305.957 7.072L306.125 7.696ZM327.659 22.408C325.979 22.408 324.635 21.832 323.627 20.68C322.619 19.512 322.115 17.952 322.115 16C322.115 14.048 322.619 12.496 323.627 11.344C324.651 10.176 326.019 9.592 327.731 9.592C329.475 9.592 330.851 10.16 331.859 11.296C332.867 12.432 333.371 13.976 333.371 15.928C333.371 17.88 332.851 19.448 331.811 20.632C330.771 21.816 329.387 22.408 327.659 22.408ZM327.779 11.176C326.659 11.176 325.779 11.568 325.139 12.352C324.499 13.136 324.147 14.248 324.083 15.688C324.083 15.688 324.083 15.792 324.083 16C324.083 17.504 324.395 18.688 325.019 19.552C325.659 20.4 326.547 20.824 327.683 20.824C328.851 20.824 329.763 20.4 330.419 19.552C331.091 18.688 331.427 17.496 331.427 15.976C331.427 12.776 330.211 11.176 327.779 11.176ZM340.305 9.592C341.377 9.592 342.273 9.872 342.993 10.432V10.336C342.993 9.744 343.249 9.448 343.761 9.448C344.289 9.448 344.553 9.704 344.553 10.216C344.553 10.312 344.537 10.552 344.505 10.936C344.441 11.256 344.409 11.576 344.409 11.896C344.409 12.088 344.433 12.368 344.481 12.736C344.545 13.104 344.577 13.384 344.577 13.576C344.577 14.184 344.313 14.488 343.785 14.488C343.273 14.488 343.009 14.232 342.993 13.72L342.969 12.928C342.953 12.448 342.673 12.04 342.129 11.704C341.601 11.352 340.977 11.176 340.257 11.176C339.521 11.176 338.905 11.368 338.409 11.752C337.913 12.12 337.665 12.584 337.665 13.144C337.665 14.168 338.369 14.776 339.777 14.968L341.169 15.16C343.889 15.528 345.249 16.656 345.249 18.544C345.249 19.696 344.809 20.632 343.929 21.352C343.049 22.056 341.897 22.408 340.473 22.408C339.145 22.408 337.993 22.032 337.017 21.28C337.033 21.44 337.041 21.592 337.041 21.736C337.041 22.312 336.769 22.6 336.225 22.6C335.633 22.6 335.337 22.272 335.337 21.616C335.337 21.728 335.385 21.312 335.481 20.368C335.513 20.144 335.529 19.92 335.529 19.696C335.529 19.312 335.497 18.952 335.433 18.616C335.369 18.28 335.337 18.016 335.337 17.824C335.337 17.264 335.593 16.984 336.105 16.984C336.441 16.984 336.649 17.064 336.729 17.224C336.825 17.384 336.881 17.808 336.897 18.496C336.913 19.184 337.273 19.744 337.977 20.176C338.681 20.608 339.577 20.824 340.665 20.824C341.449 20.824 342.097 20.624 342.609 20.224C343.121 19.824 343.377 19.32 343.377 18.712C343.377 17.624 342.513 16.992 340.785 16.816C339.137 16.64 337.881 16.32 337.017 15.856C336.153 15.376 335.721 14.544 335.721 13.36C335.721 12.24 336.145 11.336 336.993 10.648C337.841 9.944 338.945 9.592 340.305 9.592ZM352.117 9.592C353.189 9.592 354.085 9.872 354.805 10.432V10.336C354.805 9.744 355.061 9.448 355.573 9.448C356.101 9.448 356.365 9.704 356.365 10.216C356.365 10.312 356.349 10.552 356.317 10.936C356.253 11.256 356.221 11.576 356.221 11.896C356.221 12.088 356.245 12.368 356.293 12.736C356.357 13.104 356.389 13.384 356.389 13.576C356.389 14.184 356.125 14.488 355.597 14.488C355.085 14.488 354.821 14.232 354.805 13.72L354.781 12.928C354.765 12.448 354.485 12.04 353.941 11.704C353.413 11.352 352.789 11.176 352.069 11.176C351.333 11.176 350.717 11.368 350.221 11.752C349.725 12.12 349.477 12.584 349.477 13.144C349.477 14.168 350.181 14.776 351.589 14.968L352.981 15.16C355.701 15.528 357.061 16.656 357.061 18.544C357.061 19.696 356.621 20.632 355.741 21.352C354.861 22.056 353.709 22.408 352.285 22.408C350.957 22.408 349.805 22.032 348.829 21.28C348.845 21.44 348.853 21.592 348.853 21.736C348.853 22.312 348.581 22.6 348.037 22.6C347.445 22.6 347.149 22.272 347.149 21.616C347.149 21.728 347.197 21.312 347.293 20.368C347.325 20.144 347.341 19.92 347.341 19.696C347.341 19.312 347.309 18.952 347.245 18.616C347.181 18.28 347.149 18.016 347.149 17.824C347.149 17.264 347.405 16.984 347.917 16.984C348.253 16.984 348.461 17.064 348.541 17.224C348.637 17.384 348.693 17.808 348.709 18.496C348.725 19.184 349.085 19.744 349.789 20.176C350.493 20.608 351.389 20.824 352.477 20.824C353.261 20.824 353.909 20.624 354.421 20.224C354.933 19.824 355.189 19.32 355.189 18.712C355.189 17.624 354.325 16.992 352.597 16.816C350.949 16.64 349.693 16.32 348.829 15.856C347.965 15.376 347.533 14.544 347.533 13.36C347.533 12.24 347.957 11.336 348.805 10.648C349.653 9.944 350.757 9.592 352.117 9.592Z" fill="#D8B88B"/>
<line x1="368.5" y1="2" x2="368.5" y2="26" stroke="#D8B88B"/>
<path d="M381.747 16.648C381.747 16.392 381.859 16.176 382.083 16C381.939 15.92 381.819 15.88 381.723 15.88C381.371 15.88 381.059 16.072 380.787 16.456C380.531 16.824 380.403 17.256 380.403 17.752C380.403 18.632 380.747 19.36 381.435 19.936C382.123 20.512 383.003 20.8 384.075 20.8C386.491 20.8 387.835 19.712 388.107 17.536C388.219 16.624 388.275 15.368 388.275 13.768V13L388.251 9.184C388.251 8 387.843 7.408 387.027 7.408C386.803 7.408 386.635 7.424 386.523 7.456C386.267 7.504 386.051 7.528 385.875 7.528C385.667 7.528 385.491 7.456 385.347 7.312C385.203 7.152 385.131 6.96 385.131 6.736C385.131 6.176 385.483 5.896 386.187 5.896C386.283 5.896 386.395 5.904 386.523 5.92L387.795 6.088C388.275 6.152 388.771 6.184 389.283 6.184C389.763 6.184 390.307 6.144 390.915 6.064L392.019 5.92C392.083 5.904 392.195 5.896 392.355 5.896C393.059 5.896 393.411 6.176 393.411 6.736C393.411 7.264 393.155 7.528 392.643 7.528C392.483 7.528 392.267 7.504 391.995 7.456C391.883 7.424 391.715 7.408 391.491 7.408C390.675 7.408 390.267 8 390.267 9.184V13.768C390.267 16.168 390.171 17.776 389.979 18.592C389.803 19.312 389.443 19.976 388.899 20.584C387.731 21.88 386.147 22.528 384.147 22.528C382.467 22.528 381.099 22.096 380.043 21.232C379.003 20.352 378.483 19.224 378.483 17.848C378.483 16.824 378.803 15.968 379.443 15.28C380.099 14.576 380.907 14.224 381.867 14.224C382.555 14.224 383.115 14.408 383.547 14.776C383.979 15.128 384.195 15.592 384.195 16.168C384.195 16.568 384.067 16.92 383.811 17.224C383.555 17.512 383.251 17.656 382.899 17.656C382.595 17.656 382.323 17.56 382.083 17.368C381.859 17.16 381.747 16.92 381.747 16.648ZM399.343 22.408C397.663 22.408 396.319 21.832 395.311 20.68C394.303 19.512 393.799 17.952 393.799 16C393.799 14.048 394.303 12.496 395.311 11.344C396.335 10.176 397.703 9.592 399.415 9.592C401.159 9.592 402.535 10.16 403.543 11.296C404.551 12.432 405.055 13.976 405.055 15.928C405.055 17.88 404.535 19.448 403.495 20.632C402.455 21.816 401.071 22.408 399.343 22.408ZM399.463 11.176C398.343 11.176 397.463 11.568 396.823 12.352C396.183 13.136 395.831 14.248 395.767 15.688C395.767 15.688 395.767 15.792 395.767 16C395.767 17.504 396.079 18.688 396.703 19.552C397.343 20.4 398.231 20.824 399.367 20.824C400.535 20.824 401.447 20.4 402.103 19.552C402.775 18.688 403.111 17.496 403.111 15.976C403.111 12.776 401.895 11.176 399.463 11.176ZM417.82 14.944C417.82 15.552 417.78 15.928 417.7 16.072C417.62 16.2 417.388 16.264 417.004 16.264H409.372C409.164 16.264 409.028 16.296 408.964 16.36C408.9 16.408 408.868 16.496 408.868 16.624C408.868 17.824 409.228 18.824 409.948 19.624C410.668 20.424 411.564 20.824 412.636 20.824C413.34 20.824 413.98 20.632 414.556 20.248C415.148 19.864 415.532 19.376 415.708 18.784L415.924 18.088C416.036 17.704 416.3 17.512 416.716 17.512C417.308 17.512 417.604 17.816 417.604 18.424C417.604 19.464 417.076 20.392 416.02 21.208C414.964 22.008 413.764 22.408 412.42 22.408C410.74 22.408 409.404 21.848 408.412 20.728C407.42 19.592 406.924 18.072 406.924 16.168C406.924 14.216 407.452 12.632 408.508 11.416C409.564 10.2 410.94 9.592 412.636 9.592C414.14 9.592 415.38 10.096 416.356 11.104C417.332 12.112 417.82 13.392 417.82 14.944ZM409.108 14.32C409.108 14.544 409.284 14.656 409.636 14.656H415.372C415.708 14.656 415.876 14.544 415.876 14.32C415.876 13.472 415.556 12.736 414.916 12.112C414.276 11.488 413.524 11.176 412.66 11.176C411.764 11.176 410.948 11.504 410.212 12.16C409.476 12.8 409.108 13.52 409.108 14.32ZM428.244 18.808V9.184C428.244 8 427.836 7.408 427.02 7.408C426.892 7.408 426.724 7.424 426.516 7.456C426.212 7.504 425.996 7.528 425.868 7.528C425.356 7.528 425.1 7.264 425.1 6.736C425.1 6.176 425.452 5.896 426.156 5.896C426.268 5.896 426.388 5.904 426.516 5.92L427.692 6.064C428.076 6.112 428.556 6.136 429.132 6.136C429.532 6.136 430.012 6.112 430.572 6.064C431.884 5.952 432.876 5.896 433.548 5.896C434.572 5.896 435.452 5.976 436.188 6.136C437.244 6.36 438.068 6.856 438.66 7.624C439.268 8.392 439.572 9.32 439.572 10.408C439.572 11.912 439.052 13.064 438.012 13.864C436.988 14.664 435.5 15.064 433.548 15.064H431.844C431.316 15.064 431.004 15.056 430.908 15.04H430.86C430.604 15.04 430.436 15.088 430.356 15.184C430.292 15.264 430.26 15.464 430.26 15.784V16.264C430.26 18.296 430.316 19.528 430.428 19.96C430.556 20.392 430.908 20.608 431.484 20.608C431.66 20.608 431.828 20.584 431.988 20.536C432.34 20.504 432.556 20.488 432.636 20.488C433.132 20.488 433.38 20.744 433.38 21.256C433.38 21.832 433.028 22.12 432.324 22.12C432.324 22.12 432.212 22.104 431.988 22.072L430.788 21.904C430.452 21.856 429.948 21.832 429.276 21.832C428.716 21.832 428.26 21.856 427.908 21.904L426.516 22.096C426.484 22.096 426.436 22.104 426.372 22.12C426.308 22.12 426.252 22.12 426.204 22.12C425.484 22.12 425.124 21.84 425.124 21.28C425.124 21.056 425.196 20.872 425.34 20.728C425.484 20.568 425.66 20.488 425.868 20.488C426.044 20.488 426.26 20.512 426.516 20.56C426.628 20.592 426.796 20.608 427.02 20.608C427.836 20.608 428.244 20.008 428.244 18.808ZM430.428 7.936C430.316 8.096 430.26 8.536 430.26 9.256V12.808C430.26 13.24 430.564 13.488 431.172 13.552C431.124 13.552 431.588 13.552 432.564 13.552C433.7 13.552 434.644 13.464 435.396 13.288C436.82 12.952 437.532 12.016 437.532 10.48C437.532 8.448 436.236 7.432 433.644 7.432C431.724 7.432 430.652 7.6 430.428 7.936ZM450.924 22.312C449.612 22.312 448.804 21.744 448.5 20.608C447.684 21.808 446.404 22.408 444.66 22.408C443.364 22.408 442.324 22.088 441.54 21.448C440.772 20.808 440.388 19.952 440.388 18.88C440.388 17.552 440.956 16.576 442.092 15.952C442.524 15.712 442.892 15.56 443.196 15.496C443.516 15.416 444.148 15.32 445.092 15.208C446.436 15.064 447.308 14.864 447.708 14.608C448.124 14.352 448.332 13.88 448.332 13.192C448.332 12.536 448.1 12.024 447.636 11.656C447.188 11.272 446.556 11.08 445.74 11.08C445.02 11.08 444.348 11.28 443.724 11.68C443.484 11.84 443.364 12.008 443.364 12.184C443.364 12.248 443.436 12.328 443.58 12.424C443.804 12.584 443.916 12.856 443.916 13.24C443.916 13.56 443.796 13.824 443.556 14.032C443.332 14.24 443.044 14.344 442.692 14.344C442.276 14.344 441.924 14.2 441.636 13.912C441.364 13.624 441.228 13.272 441.228 12.856C441.228 11.96 441.668 11.192 442.548 10.552C443.444 9.912 444.524 9.592 445.788 9.592C448.7 9.592 450.156 10.992 450.156 13.792V18.64C450.156 19.408 450.172 19.864 450.204 20.008C450.3 20.568 450.572 20.848 451.02 20.848C451.58 20.848 451.86 20.336 451.86 19.312V18.136C451.86 17.624 452.108 17.368 452.604 17.368C453.132 17.368 453.396 17.752 453.396 18.52V18.64L453.372 20.008C453.34 21.544 452.524 22.312 450.924 22.312ZM448.26 17.536L448.284 15.832C447.932 16.152 447.556 16.376 447.156 16.504C446.772 16.632 446.076 16.744 445.068 16.84C443.244 17.016 442.332 17.688 442.332 18.856C442.332 19.464 442.548 19.944 442.98 20.296C443.428 20.648 444.028 20.824 444.78 20.824C445.852 20.824 446.692 20.536 447.3 19.96C447.924 19.368 448.244 18.56 448.26 17.536ZM457.823 10.744V11.416C458.783 10.2 460.063 9.592 461.663 9.592C462.527 9.592 463.343 9.816 464.111 10.264C464.879 10.696 465.399 11.24 465.671 11.896C465.895 12.44 466.007 13.152 466.007 14.032V18.592C466.007 19.28 466.015 19.688 466.031 19.816C466.111 20.36 466.327 20.632 466.679 20.632C466.823 20.632 467.007 20.616 467.231 20.584C467.471 20.536 467.639 20.512 467.735 20.512C467.943 20.512 468.119 20.584 468.263 20.728C468.423 20.872 468.503 21.048 468.503 21.256C468.503 21.496 468.407 21.696 468.215 21.856C468.023 22.016 467.791 22.096 467.519 22.096C467.295 22.096 466.927 22.064 466.415 22C465.903 21.936 465.423 21.904 464.975 21.904C464.559 21.904 464.215 21.92 463.943 21.952C463.143 22.048 462.719 22.096 462.671 22.096C462.031 22.096 461.711 21.816 461.711 21.256C461.711 20.76 461.983 20.512 462.527 20.512C462.655 20.512 462.799 20.528 462.959 20.56C463.263 20.624 463.455 20.656 463.535 20.656C463.919 20.656 464.127 20.216 464.159 19.336L464.207 18.112L464.231 16.648V14.824C464.231 13.976 464.191 13.392 464.111 13.072C463.967 12.464 463.655 11.992 463.175 11.656C462.647 11.288 462.047 11.104 461.375 11.104C460.095 11.104 459.175 11.56 458.615 12.472C458.231 13.096 458.039 14.16 458.039 15.664V18.856C458.039 19.56 458.087 20.04 458.183 20.296C458.279 20.552 458.455 20.68 458.711 20.68C458.839 20.68 459.015 20.648 459.239 20.584C459.463 20.52 459.647 20.488 459.791 20.488C460.287 20.488 460.535 20.76 460.535 21.304C460.535 21.832 460.215 22.096 459.575 22.096C459.447 22.096 459.031 22.048 458.327 21.952C457.975 21.904 457.583 21.88 457.151 21.88C456.815 21.88 456.367 21.912 455.807 21.976C455.103 22.056 454.703 22.096 454.607 22.096C453.935 22.096 453.599 21.824 453.599 21.28C453.599 20.768 453.855 20.512 454.367 20.512C454.447 20.512 454.591 20.536 454.799 20.584C455.023 20.632 455.239 20.656 455.447 20.656C455.927 20.656 456.175 20.192 456.191 19.264L456.239 16.6V13.696L456.191 12.856C456.159 12.312 456.087 11.944 455.975 11.752C455.879 11.544 455.703 11.44 455.447 11.44C455.335 11.44 455.167 11.464 454.943 11.512C454.735 11.544 454.575 11.56 454.463 11.56C453.887 11.56 453.599 11.304 453.599 10.792C453.599 10.264 453.959 10 454.679 10C454.775 10 454.855 10.008 454.919 10.024L455.807 10.12C456.063 10.12 456.287 10.104 456.479 10.072C456.895 10.04 457.111 10.024 457.127 10.024C457.591 10.024 457.823 10.264 457.823 10.744ZM476.032 18.688L476.08 17.152C476.096 16.496 476.384 16.168 476.944 16.168C477.504 16.168 477.784 16.536 477.784 17.272C477.784 19.016 477.56 20.232 477.112 20.92C476.504 21.848 475.504 22.312 474.112 22.312C472.832 22.312 471.92 21.904 471.376 21.088C470.976 20.496 470.776 19.488 470.776 18.064V12.304C470.776 11.968 470.624 11.8 470.32 11.8H469.552C469.296 11.8 469.08 11.72 468.904 11.56C468.744 11.384 468.664 11.176 468.664 10.936C468.664 10.712 468.744 10.512 468.904 10.336C469.08 10.16 469.272 10.072 469.48 10.072H470.416C470.688 10.072 470.824 9.92 470.824 9.616V7.144C470.824 6.536 471.136 6.232 471.76 6.232C472.336 6.232 472.624 6.536 472.624 7.144V9.712C472.624 9.952 472.768 10.072 473.056 10.072H475.672C476.28 10.072 476.584 10.352 476.584 10.912C476.584 11.504 476.256 11.8 475.6 11.8H472.96C472.736 11.8 472.624 11.968 472.624 12.304V18.208C472.624 19.888 473.176 20.728 474.28 20.728C475.4 20.728 475.984 20.048 476.032 18.688ZM484.561 22.408C482.881 22.408 481.537 21.832 480.529 20.68C479.521 19.512 479.017 17.952 479.017 16C479.017 14.048 479.521 12.496 480.529 11.344C481.553 10.176 482.921 9.592 484.633 9.592C486.377 9.592 487.753 10.16 488.761 11.296C489.769 12.432 490.273 13.976 490.273 15.928C490.273 17.88 489.753 19.448 488.713 20.632C487.673 21.816 486.289 22.408 484.561 22.408ZM484.681 11.176C483.561 11.176 482.681 11.568 482.041 12.352C481.401 13.136 481.049 14.248 480.985 15.688C480.985 15.688 480.985 15.792 480.985 16C480.985 17.504 481.297 18.688 481.921 19.552C482.561 20.4 483.449 20.824 484.585 20.824C485.753 20.824 486.665 20.4 487.321 19.552C487.993 18.688 488.329 17.496 488.329 15.976C488.329 12.776 487.113 11.176 484.681 11.176ZM495.887 11.968L495.911 19.432C495.927 20.248 496.143 20.656 496.559 20.656C496.655 20.656 496.855 20.616 497.159 20.536C497.351 20.504 497.479 20.488 497.543 20.488C498.071 20.488 498.335 20.76 498.335 21.304C498.335 21.832 498.007 22.096 497.351 22.096C497.095 22.096 496.687 22.064 496.127 22C495.567 21.936 495.135 21.904 494.831 21.904C494.575 21.904 494.191 21.936 493.679 22C493.167 22.064 492.791 22.096 492.551 22.096H492.431C491.759 22.096 491.423 21.808 491.423 21.232C491.423 20.736 491.695 20.488 492.239 20.488C492.271 20.488 492.327 20.488 492.407 20.488C492.503 20.504 492.575 20.512 492.623 20.512C493.023 20.576 493.255 20.608 493.319 20.608C493.607 20.608 493.783 20.488 493.847 20.248C493.927 19.992 493.975 19.344 493.991 18.304L494.015 16.624L494.087 12.904L494.063 8.632C494.047 8.152 494.023 7.832 493.991 7.672C493.879 7.304 493.655 7.12 493.319 7.12C493.271 7.12 493.063 7.152 492.695 7.216C492.519 7.248 492.375 7.264 492.263 7.264C491.719 7.264 491.447 7.008 491.447 6.496C491.447 5.968 491.767 5.704 492.407 5.704C492.583 5.704 492.735 5.712 492.863 5.728L493.439 5.8C493.695 5.832 493.911 5.848 494.087 5.848C494.247 5.848 494.487 5.824 494.807 5.776C495.127 5.712 495.367 5.68 495.527 5.68C495.895 5.68 496.079 5.912 496.079 6.376C496.079 6.536 496.071 6.656 496.055 6.736C495.943 7.968 495.887 9.712 495.887 11.968ZM503.437 15.04V18.16C503.437 18.96 503.445 19.432 503.461 19.576C503.541 20.296 503.757 20.656 504.109 20.656C504.189 20.656 504.389 20.616 504.709 20.536C504.789 20.504 504.909 20.488 505.069 20.488C505.677 20.488 505.981 20.752 505.981 21.28C505.981 21.504 505.877 21.696 505.669 21.856C505.477 22.016 505.229 22.096 504.925 22.096C504.669 22.096 504.277 22.064 503.749 22C503.237 21.92 502.853 21.88 502.597 21.88C502.181 21.88 501.717 21.912 501.205 21.976C500.581 22.056 500.165 22.096 499.957 22.096C499.317 22.096 498.997 21.824 498.997 21.28C498.997 20.752 499.269 20.488 499.813 20.488C499.941 20.488 500.125 20.512 500.365 20.56C500.621 20.608 500.813 20.632 500.941 20.632C501.325 20.632 501.557 20.12 501.637 19.096C501.637 19.032 501.637 18.336 501.637 17.008V15.04C501.637 13.712 501.637 13.016 501.637 12.952C501.557 11.944 501.317 11.44 500.917 11.44C500.789 11.44 500.605 11.472 500.365 11.536C500.141 11.584 499.973 11.608 499.861 11.608C499.285 11.608 498.997 11.352 498.997 10.84C498.997 10.296 499.349 10.024 500.053 10.024C500.357 10.024 500.573 10.032 500.701 10.048C501.213 10.112 501.541 10.144 501.685 10.144C501.813 10.144 502.005 10.128 502.261 10.096C502.533 10.048 502.733 10.024 502.861 10.024C503.325 10.024 503.557 10.336 503.557 10.96C503.557 11.024 503.549 11.12 503.533 11.248C503.517 11.376 503.509 11.472 503.509 11.536C503.493 11.664 503.477 12.16 503.461 13.024C503.445 13.68 503.437 14.352 503.437 15.04ZM502.189 8.752C501.821 8.752 501.501 8.624 501.229 8.368C500.973 8.096 500.845 7.776 500.845 7.408C500.845 7.04 500.973 6.728 501.229 6.472C501.501 6.216 501.821 6.088 502.189 6.088C502.557 6.088 502.869 6.216 503.125 6.472C503.397 6.728 503.533 7.04 503.533 7.408C503.533 7.776 503.397 8.096 503.125 8.368C502.869 8.624 502.557 8.752 502.189 8.752ZM517.299 22.312C515.987 22.312 515.179 21.744 514.875 20.608C514.059 21.808 512.779 22.408 511.035 22.408C509.739 22.408 508.699 22.088 507.915 21.448C507.147 20.808 506.763 19.952 506.763 18.88C506.763 17.552 507.331 16.576 508.467 15.952C508.899 15.712 509.267 15.56 509.571 15.496C509.891 15.416 510.523 15.32 511.467 15.208C512.811 15.064 513.683 14.864 514.083 14.608C514.499 14.352 514.707 13.88 514.707 13.192C514.707 12.536 514.475 12.024 514.011 11.656C513.563 11.272 512.931 11.08 512.115 11.08C511.395 11.08 510.723 11.28 510.099 11.68C509.859 11.84 509.739 12.008 509.739 12.184C509.739 12.248 509.811 12.328 509.955 12.424C510.179 12.584 510.291 12.856 510.291 13.24C510.291 13.56 510.171 13.824 509.931 14.032C509.707 14.24 509.419 14.344 509.067 14.344C508.651 14.344 508.299 14.2 508.011 13.912C507.739 13.624 507.603 13.272 507.603 12.856C507.603 11.96 508.043 11.192 508.923 10.552C509.819 9.912 510.899 9.592 512.163 9.592C515.075 9.592 516.531 10.992 516.531 13.792V18.64C516.531 19.408 516.547 19.864 516.579 20.008C516.675 20.568 516.947 20.848 517.395 20.848C517.955 20.848 518.235 20.336 518.235 19.312V18.136C518.235 17.624 518.483 17.368 518.979 17.368C519.507 17.368 519.771 17.752 519.771 18.52V18.64L519.747 20.008C519.715 21.544 518.899 22.312 517.299 22.312ZM514.635 17.536L514.659 15.832C514.307 16.152 513.931 16.376 513.531 16.504C513.147 16.632 512.451 16.744 511.443 16.84C509.619 17.016 508.707 17.688 508.707 18.856C508.707 19.464 508.923 19.944 509.355 20.296C509.803 20.648 510.403 20.824 511.155 20.824C512.227 20.824 513.067 20.536 513.675 19.96C514.299 19.368 514.619 18.56 514.635 17.536ZM524.198 10.744V11.416C525.158 10.2 526.438 9.592 528.038 9.592C528.902 9.592 529.718 9.816 530.486 10.264C531.254 10.696 531.774 11.24 532.046 11.896C532.27 12.44 532.382 13.152 532.382 14.032V18.592C532.382 19.28 532.39 19.688 532.406 19.816C532.486 20.36 532.702 20.632 533.054 20.632C533.198 20.632 533.382 20.616 533.606 20.584C533.846 20.536 534.014 20.512 534.11 20.512C534.318 20.512 534.494 20.584 534.638 20.728C534.798 20.872 534.878 21.048 534.878 21.256C534.878 21.496 534.782 21.696 534.59 21.856C534.398 22.016 534.166 22.096 533.894 22.096C533.67 22.096 533.302 22.064 532.79 22C532.278 21.936 531.798 21.904 531.35 21.904C530.934 21.904 530.59 21.92 530.318 21.952C529.518 22.048 529.094 22.096 529.046 22.096C528.406 22.096 528.086 21.816 528.086 21.256C528.086 20.76 528.358 20.512 528.902 20.512C529.03 20.512 529.174 20.528 529.334 20.56C529.638 20.624 529.83 20.656 529.91 20.656C530.294 20.656 530.502 20.216 530.534 19.336L530.582 18.112L530.606 16.648V14.824C530.606 13.976 530.566 13.392 530.486 13.072C530.342 12.464 530.03 11.992 529.55 11.656C529.022 11.288 528.422 11.104 527.75 11.104C526.47 11.104 525.55 11.56 524.99 12.472C524.606 13.096 524.414 14.16 524.414 15.664V18.856C524.414 19.56 524.462 20.04 524.558 20.296C524.654 20.552 524.83 20.68 525.086 20.68C525.214 20.68 525.39 20.648 525.614 20.584C525.838 20.52 526.022 20.488 526.166 20.488C526.662 20.488 526.91 20.76 526.91 21.304C526.91 21.832 526.59 22.096 525.95 22.096C525.822 22.096 525.406 22.048 524.702 21.952C524.35 21.904 523.958 21.88 523.526 21.88C523.19 21.88 522.742 21.912 522.182 21.976C521.478 22.056 521.078 22.096 520.982 22.096C520.31 22.096 519.974 21.824 519.974 21.28C519.974 20.768 520.23 20.512 520.742 20.512C520.822 20.512 520.966 20.536 521.174 20.584C521.398 20.632 521.614 20.656 521.822 20.656C522.302 20.656 522.55 20.192 522.566 19.264L522.614 16.6V13.696L522.566 12.856C522.534 12.312 522.462 11.944 522.35 11.752C522.254 11.544 522.078 11.44 521.822 11.44C521.71 11.44 521.542 11.464 521.318 11.512C521.11 11.544 520.95 11.56 520.838 11.56C520.262 11.56 519.974 11.304 519.974 10.792C519.974 10.264 520.334 10 521.054 10C521.15 10 521.23 10.008 521.294 10.024L522.182 10.12C522.438 10.12 522.662 10.104 522.854 10.072C523.27 10.04 523.486 10.024 523.502 10.024C523.966 10.024 524.198 10.264 524.198 10.744ZM541.327 22.408C539.647 22.408 538.303 21.832 537.295 20.68C536.287 19.512 535.783 17.952 535.783 16C535.783 14.048 536.287 12.496 537.295 11.344C538.319 10.176 539.687 9.592 541.399 9.592C543.143 9.592 544.519 10.16 545.527 11.296C546.535 12.432 547.039 13.976 547.039 15.928C547.039 17.88 546.519 19.448 545.479 20.632C544.439 21.816 543.055 22.408 541.327 22.408ZM541.447 11.176C540.327 11.176 539.447 11.568 538.807 12.352C538.167 13.136 537.815 14.248 537.751 15.688C537.751 15.688 537.751 15.792 537.751 16C537.751 17.504 538.063 18.688 538.687 19.552C539.327 20.4 540.215 20.824 541.351 20.824C542.519 20.824 543.431 20.4 544.087 19.552C544.759 18.688 545.095 17.496 545.095 15.976C545.095 12.776 543.879 11.176 541.447 11.176Z" fill="#D8B88B"/>
</svg>
