<svg width="123" height="147" viewBox="0 0 123 147" fill="none" xmlns="http://www.w3.org/2000/svg">
<g filter="url(#filter0_d_36_8886)">
<rect x="3" y="5.23242" width="107" height="131" rx="1" transform="rotate(-1.73115 3 5.23242)" fill="#F2F2F2"/>
<rect x="3" y="5.23242" width="107" height="131" rx="1" transform="rotate(-1.73115 3 5.23242)" stroke="#B1B0B0" stroke-width="2"/>
<g clip-path="url(#clip0_36_8886)">
<rect x="15.3569" y="16.8644" width="83" height="79" transform="rotate(-1.73115 15.3569 16.8644)" fill="#B0C4DE"/>
<path d="M25.3428 72.8874C24.2823 72.9194 19.4818 76.5195 17.2141 78.3155L17.7434 95.8284L80.7016 93.6207C80.79 92.1548 77.2311 86.7141 75.4406 84.177C74.4463 84.207 68.4166 76.768 67.3809 75.4275C66.5524 74.3551 59.7386 71.3398 56.4353 69.9662C56.7544 69.55 58.0141 68.4247 60.4996 67.2521C62.9852 66.0795 62.8364 62.2531 62.4513 60.4864L63.7079 58.1621C65.0003 57.0255 64.3753 50.9779 63.9012 48.0962C57.448 37.6215 45.0156 43.3321 42.9258 45.5292C41.2541 47.2869 40.8392 51.486 40.8407 53.3659C37.383 57.4944 39.5688 60.6699 41.0939 61.7416L40.8407 64.3405C39.7912 64.738 36.9727 68.0648 35.6947 69.6784C32.9145 69.8844 27.635 71.9036 25.3428 72.8874Z" fill="#D9D9D9" stroke="black" stroke-width="0.5"/>
<path d="M59.9519 65.5919C59.7641 63.7685 52.6042 62.105 49.0477 61.5012L47.4182 62.465L51.432 63.5631C54.3502 64.9991 60.1397 67.4154 59.9519 65.5919Z" fill="black" stroke="black" stroke-width="0.5"/>
<path d="M48.4214 62.7396C50.5341 64.9621 55.2714 68.782 57.3188 66.2813C54.7396 65.0891 49.3493 62.7116 48.4214 62.7396Z" fill="#D9D9D9" stroke="black" stroke-width="0.5"/>
<path d="M47.8818 56.3845C47.4985 55.8271 47.354 54.0768 47.3297 53.2714C48.9259 50.5202 56.6 51.8531 55.3432 55.7322L56.5764 56.1218C57.7215 55.281 60.3924 54.0716 61.9151 55.9604C63.5257 57.0498 64.3449 60.5816 60.0739 60.7107C58.9539 60.6972 56.6863 59.7604 56.5764 56.1218L55.3432 55.7322C54.0863 59.6113 48.3609 57.0814 47.8818 56.3845Z" fill="#D8B88B" fill-opacity="0.5"/>
<path d="M41.7524 50.5947L47.3297 53.2714M47.3297 53.2714C47.354 54.0768 47.4985 55.8271 47.8818 56.3845C48.3609 57.0814 54.0863 59.6113 55.3432 55.7322M47.3297 53.2714C48.9259 50.5202 56.6 51.8531 55.3432 55.7322M55.3432 55.7322L56.5764 56.1218M56.5764 56.1218C57.7215 55.281 60.3924 54.0716 61.9151 55.9604C63.5257 57.0498 64.3449 60.5816 60.0739 60.7107C58.9539 60.6972 56.6863 59.7604 56.5764 56.1218Z" stroke="#D8B88B" stroke-width="0.5"/>
<path d="M41.4163 44.9653L41.5268 48.6202C42.057 48.6041 47.6149 45.1844 50.3275 43.4766C50.7068 42.8554 55.2603 43.8864 57.4896 44.4795C58.5501 44.4475 62.4408 47.3276 63.9244 48.8578L64.5274 46.858C64.9877 44.5273 62.4086 42.6034 61.0614 41.9328C60.8847 40.4748 54.5315 39.8946 51.377 39.7867C49.6248 40.3477 45.8913 41.5682 44.9744 41.9617C44.0575 42.3552 42.2203 44.1281 41.4163 44.9653Z" fill="#D8B88B" stroke="black" stroke-width="0.5"/>
<path d="M39.9985 69.396C41.2781 73.3204 45.7024 79.2227 53.1628 71.4369" stroke="black" stroke-width="0.5"/>
</g>
<rect x="15.8718" y="17.349" width="82" height="78" transform="rotate(-1.73115 15.8718 17.349)" stroke="black"/>
<path d="M78.7827 109.991C78.5108 109.999 78.312 109.948 78.1862 109.838C78.0605 109.728 77.9953 109.596 77.9906 109.442C77.9851 109.26 78.0883 108.849 78.3003 108.21C78.5121 107.565 78.8597 106.688 79.3432 105.579C79.1129 105.837 78.8786 106.075 78.6403 106.293C78.402 106.511 78.1624 106.686 77.9215 106.819C77.6873 106.946 77.4546 107.013 77.2236 107.02C76.7139 107.035 76.3123 106.916 76.019 106.663C75.7256 106.409 75.5702 105.995 75.5528 105.42C75.5349 104.827 75.5741 104.322 75.6703 103.903C75.7663 103.478 75.8884 103.132 76.0368 102.865C76.1852 102.599 76.3324 102.403 76.4783 102.279C76.624 102.149 76.7377 102.083 76.8192 102.081C77.0639 102.073 77.2522 102.116 77.3843 102.209C77.523 102.296 77.5948 102.422 77.5998 102.587C77.6046 102.747 77.569 102.919 77.4929 103.104C77.4237 103.288 77.3417 103.502 77.247 103.744C77.1523 103.986 77.0691 104.274 76.9976 104.606C76.9326 104.933 76.907 105.322 76.9206 105.772C76.9237 105.874 76.966 105.924 77.0475 105.922C77.2854 105.915 77.5279 105.836 77.7751 105.686C78.0288 105.53 78.2779 105.332 78.5223 105.091C78.7735 104.849 79.0104 104.586 79.2331 104.299C79.4555 104.008 79.6577 103.719 79.8395 103.435C80.0282 103.15 80.1837 102.894 80.3062 102.668C80.3837 102.535 80.4549 102.413 80.5196 102.302C80.5841 102.186 80.6698 102.096 80.7766 102.03C80.8833 101.958 81.0318 101.919 81.2221 101.914C81.4599 101.906 81.6417 101.955 81.7673 102.059C81.8997 102.164 81.9689 102.316 81.9749 102.515C81.9783 102.629 81.8587 102.946 81.6159 103.466C81.373 103.981 81.0664 104.751 80.696 105.777C80.4262 106.527 80.2003 107.155 80.0183 107.662C79.8364 108.169 79.6821 108.578 79.5555 108.89C79.4355 109.196 79.3336 109.427 79.2499 109.583C79.1662 109.74 79.0878 109.845 79.0146 109.898C78.9415 109.958 78.8642 109.988 78.7827 109.991Z" fill="#222222"/>
<path d="M66.145 110.031C65.9479 110.037 65.7902 109.996 65.6719 109.908C65.5606 109.826 65.5025 109.705 65.4977 109.546C65.4933 109.398 65.537 109.271 65.6291 109.166C65.721 109.055 65.9014 108.946 66.1703 108.841C66.1905 108.835 66.2107 108.829 66.2309 108.822C66.0602 108.799 65.9388 108.723 65.8669 108.594C65.8018 108.465 65.7666 108.315 65.7615 108.144C65.7585 108.047 65.7742 107.89 65.8084 107.672C65.8427 107.455 65.8862 107.205 65.9389 106.924C65.9916 106.644 66.0478 106.365 66.1075 106.09C66.1671 105.809 66.2174 105.562 66.2586 105.35C66.3731 104.862 66.5267 104.43 66.7194 104.053C66.9121 103.677 67.1787 103.381 67.5191 103.166C67.8593 102.944 68.3013 102.826 68.8449 102.809C69.2595 102.797 69.6695 102.858 70.075 102.994C70.487 103.124 70.8635 103.315 71.2045 103.567C71.5454 103.819 71.8197 104.119 72.0275 104.466C72.2421 104.813 72.3557 105.197 72.3684 105.619C72.3829 106.097 72.1732 106.585 71.7393 107.083C71.3053 107.58 70.6907 108.063 69.8954 108.532C69.1067 108.995 68.1808 109.419 67.1177 109.805C66.9427 109.867 66.7844 109.917 66.6427 109.956C66.508 110 66.3421 110.025 66.145 110.031ZM66.9778 108.552C67.9533 108.192 68.7389 107.852 69.3346 107.532C69.9303 107.211 70.359 106.879 70.6207 106.535C70.8892 106.191 71.017 105.805 71.0041 105.378C70.9969 105.138 70.8948 104.913 70.698 104.703C70.5012 104.492 70.2513 104.326 69.9483 104.204C69.6451 104.076 69.327 104.017 68.994 104.027C68.6338 104.038 68.3487 104.17 68.1386 104.421C67.9284 104.667 67.7674 105.082 67.6559 105.667C67.6018 105.902 67.5449 106.158 67.4852 106.433C67.4321 106.703 67.3788 106.964 67.3252 107.216C67.2782 107.463 67.2368 107.669 67.201 107.835C67.1721 108.002 67.1546 108.099 67.1487 108.128C67.1198 108.3 67.0629 108.441 66.9778 108.552Z" fill="#222222"/>
<path d="M56.2988 110.328C56.1017 110.334 55.944 110.293 55.8257 110.206C55.7144 110.124 55.6564 110.003 55.6515 109.843C55.6471 109.695 55.6908 109.569 55.7829 109.463C55.8748 109.352 56.0552 109.244 56.3241 109.139C56.3443 109.133 56.3645 109.126 56.3847 109.12C56.214 109.097 56.0926 109.021 56.0207 108.892C55.9556 108.762 55.9204 108.612 55.9153 108.442C55.9123 108.345 55.928 108.187 55.9622 107.97C55.9965 107.752 56.04 107.503 56.0927 107.222C56.1454 106.941 56.2016 106.663 56.2613 106.387C56.3209 106.106 56.3712 105.86 56.4124 105.647C56.5269 105.159 56.6805 104.727 56.8732 104.351C57.0659 103.975 57.3325 103.679 57.6729 103.463C58.0131 103.242 58.4551 103.123 58.9988 103.107C59.4133 103.094 59.8233 103.156 60.2288 103.292C60.6408 103.422 61.0173 103.613 61.3583 103.865C61.6992 104.117 61.9735 104.416 62.1813 104.763C62.3959 105.11 62.5095 105.495 62.5223 105.916C62.5367 106.394 62.327 106.882 61.8931 107.38C61.4592 107.878 60.8445 108.361 60.0492 108.83C59.2605 109.292 58.3346 109.717 57.2715 110.102C57.0965 110.164 56.9382 110.215 56.7965 110.253C56.6618 110.297 56.4959 110.322 56.2988 110.328ZM57.1316 108.849C58.1071 108.489 58.8927 108.149 59.4884 107.829C60.0841 107.509 60.5128 107.177 60.7745 106.832C61.043 106.488 61.1708 106.102 61.1579 105.675C61.1507 105.436 61.0486 105.211 60.8518 105C60.655 104.79 60.4051 104.623 60.1021 104.501C59.7989 104.374 59.4808 104.315 59.1478 104.325C58.7876 104.336 58.5025 104.467 58.2924 104.718C58.0822 104.964 57.9213 105.38 57.8097 105.964C57.7556 106.2 57.6987 106.455 57.639 106.731C57.5859 107 57.5326 107.261 57.479 107.514C57.432 107.76 57.3906 107.967 57.3548 108.133C57.3259 108.299 57.3084 108.397 57.3025 108.425C57.2736 108.597 57.2167 108.739 57.1316 108.849Z" fill="#222222"/>
<path d="M48.5183 110.11C48.3348 110.116 48.1332 110.085 47.9135 110.017C47.7004 109.944 47.4959 109.816 47.2999 109.634C47.104 109.452 46.9398 109.198 46.8075 108.871C46.6752 108.544 46.6014 108.127 46.5861 107.621C46.5747 107.245 46.6209 106.861 46.7248 106.471C46.8352 106.074 47.0143 105.698 47.2621 105.343C47.5098 104.987 47.8337 104.676 48.2337 104.407C48.6405 104.138 49.1312 103.944 49.7058 103.824C49.9423 103.771 50.2129 103.72 50.5175 103.671C50.8287 103.616 51.1435 103.567 51.4619 103.523C51.7801 103.473 52.0816 103.433 52.3664 103.401C52.6579 103.37 52.9022 103.351 53.0993 103.345C53.4255 103.335 53.6713 103.365 53.8367 103.434C54.002 103.503 54.1133 103.585 54.1706 103.68C54.2277 103.77 54.2574 103.852 54.2597 103.926C54.2624 104.017 54.2312 104.109 54.166 104.202C54.1076 104.295 53.9395 104.36 53.6617 104.397C53.6007 104.404 53.472 104.423 53.2756 104.451C53.079 104.474 52.8419 104.507 52.5643 104.55C52.2935 104.592 52.0058 104.638 51.7012 104.687C51.4032 104.73 51.1121 104.776 50.8278 104.825C50.5502 104.867 50.3099 104.906 50.1069 104.94C49.6604 105.022 49.3003 105.147 49.0264 105.315C48.7524 105.477 48.5405 105.666 48.3905 105.882C48.2474 106.097 48.1454 106.322 48.0845 106.558C48.3548 106.498 48.6352 106.438 48.9259 106.378C49.2166 106.318 49.4905 106.264 49.7475 106.217C50.0114 106.169 50.2381 106.131 50.4277 106.102C50.6173 106.074 50.7461 106.058 50.814 106.056C51.0791 106.048 51.2397 106.072 51.2958 106.127C51.3586 106.182 51.3919 106.27 51.3955 106.389C51.3988 106.497 51.287 106.626 51.0603 106.776C50.8333 106.919 50.4706 107.07 49.9719 107.228C49.4733 107.385 48.8179 107.53 48.0056 107.663C48.0058 107.669 48.0059 107.672 48.0059 107.672C47.9957 107.786 47.9895 107.917 47.9872 108.066C47.9847 108.208 47.9856 108.351 47.9899 108.493C47.9942 108.635 48.0079 108.752 48.0311 108.842C48.0542 108.933 48.093 108.977 48.1473 108.976C48.2969 108.971 48.5034 108.939 48.7669 108.88C49.0304 108.821 49.3071 108.75 49.5971 108.667C49.8871 108.584 50.1568 108.505 50.4062 108.429C50.6554 108.347 50.8372 108.284 50.9515 108.241C51.1197 108.179 51.2879 108.117 51.4561 108.055C51.631 107.993 51.7695 107.96 51.8714 107.957C51.9734 107.954 52.0628 107.985 52.1396 108.051C52.2162 108.112 52.2429 108.208 52.2197 108.34C52.2146 108.397 52.1461 108.493 52.0142 108.628C51.8888 108.757 51.713 108.905 51.4868 109.071C51.2672 109.232 51.0033 109.391 50.6951 109.549C50.3936 109.7 50.0574 109.83 49.6865 109.938C49.3223 110.04 48.9329 110.098 48.5183 110.11Z" fill="#222222"/>
<path d="M38.1157 105.149C37.7895 105.159 37.5475 105.14 37.3896 105.094C37.2384 105.041 37.1378 104.979 37.088 104.906C37.0448 104.828 37.0223 104.757 37.0204 104.694C37.018 104.615 37.0696 104.522 37.1753 104.416C37.2807 104.305 37.489 104.218 37.8001 104.158C38.111 104.091 38.4798 104.029 38.9066 103.97C39.3332 103.906 39.7873 103.85 40.2687 103.801C40.7501 103.747 41.2384 103.698 41.7336 103.654C42.2289 103.611 42.7006 103.576 43.1488 103.551C43.5968 103.521 43.9941 103.5 44.3407 103.49C44.7009 103.479 44.9801 103.488 45.1782 103.516C45.3763 103.544 45.517 103.582 45.6001 103.631C45.69 103.68 45.7426 103.732 45.7579 103.789C45.78 103.845 45.7918 103.899 45.7934 103.95C45.7937 103.962 45.794 103.97 45.7941 103.976C45.7962 104.044 45.7781 104.119 45.7397 104.2C45.7081 104.281 45.632 104.351 45.5114 104.412C45.3906 104.467 45.2079 104.498 44.9633 104.506C44.8749 104.508 44.6782 104.526 44.373 104.558C44.0679 104.59 43.695 104.629 43.2542 104.677C42.8135 104.725 42.3456 104.773 41.8505 104.822C41.7835 105.081 41.7076 105.382 41.6228 105.727C41.5448 106.071 41.4639 106.433 41.3801 106.811C41.3031 107.19 41.2293 107.563 41.1588 107.93C41.0881 108.291 41.0302 108.626 40.9851 108.936C40.9399 109.239 40.91 109.488 40.8954 109.682C40.8762 109.945 40.79 110.133 40.637 110.246C40.4906 110.353 40.3426 110.409 40.1931 110.413C40.0844 110.416 39.975 110.4 39.8651 110.363C39.7553 110.332 39.6646 110.258 39.593 110.141C39.5213 110.017 39.4817 109.833 39.4743 109.588C39.4667 109.338 39.4846 109.029 39.528 108.663C39.5712 108.291 39.6306 107.893 39.7062 107.469C39.7886 107.045 39.8811 106.617 39.9837 106.187C40.0931 105.756 40.2068 105.353 40.3248 104.979C39.8703 105.022 39.4497 105.06 39.063 105.094C38.6761 105.123 38.3604 105.141 38.1157 105.149Z" fill="#222222"/>
<path d="M79.6502 121.843C79.5638 121.845 79.4842 121.802 79.4113 121.714C79.3386 121.631 79.2994 121.496 79.2937 121.308C79.2908 121.211 79.3091 121.013 79.3487 120.715C79.3937 120.417 79.4479 120.063 79.5111 119.655C79.2314 119.694 78.9463 119.733 78.6559 119.772C78.3706 119.805 78.0851 119.832 77.7995 119.852C77.6584 120.008 77.5453 120.109 77.4602 120.154C77.3804 120.192 77.2892 120.213 77.1867 120.216C76.9978 120.222 76.8673 120.193 76.7951 120.128C76.7228 120.058 76.6848 119.965 76.6814 119.85C76.677 119.704 76.7299 119.578 76.8401 119.472C76.9501 119.36 77.1287 119.281 77.3758 119.238C77.6339 118.842 77.9059 118.458 78.1917 118.085C78.4827 117.706 78.7683 117.328 79.0486 116.95C79.334 116.565 79.5947 116.166 79.8307 115.753C80.0667 115.339 80.264 114.9 80.4228 114.434C80.4675 114.306 80.5191 114.225 80.5775 114.193C80.6412 114.155 80.7136 114.137 80.7947 114.141C80.8866 114.144 80.961 114.191 81.0177 114.28C81.0744 114.369 81.1057 114.511 81.1115 114.704C81.1133 114.765 81.0937 114.92 81.0527 115.17C81.0116 115.42 80.9565 115.74 80.8872 116.13C80.8178 116.514 80.7416 116.941 80.6586 117.41C80.5753 117.874 80.4899 118.352 80.4022 118.846C80.827 118.785 81.2008 118.731 81.5235 118.685C81.8462 118.639 82.048 118.614 82.1289 118.612C82.2638 118.608 82.3534 118.623 82.3977 118.658C82.4418 118.687 82.4651 118.744 82.4677 118.829C82.4689 118.871 82.379 118.935 82.1979 119.019C82.0167 119.097 81.7627 119.184 81.4361 119.279C81.1093 119.367 80.7257 119.452 80.2852 119.532C80.2249 119.861 80.1671 120.181 80.1117 120.492C80.0561 120.797 80.008 121.083 79.9675 121.351C79.9404 121.528 79.901 121.653 79.8492 121.728C79.8029 121.802 79.7365 121.84 79.6502 121.843ZM80.0489 116.537C79.8529 116.846 79.6491 117.162 79.4374 117.484C79.2311 117.805 79.0217 118.115 78.8092 118.412C78.6021 118.709 78.3995 118.973 78.2012 119.204C78.4269 119.166 78.658 119.129 78.8946 119.092C79.1309 119.048 79.3727 119.007 79.62 118.97L80.0489 116.537Z" fill="#222222"/>
<path d="M75.3063 118.791C75.3137 119.033 75.2429 119.284 75.0941 119.543C74.9507 119.802 74.7586 120.059 74.5179 120.315C74.2772 120.571 74.0144 120.813 73.7296 121.039C73.4502 121.266 73.1727 121.466 72.897 121.638C72.6215 121.816 72.3772 121.953 72.1641 122.051C71.9512 122.154 71.7989 122.207 71.7071 122.21C71.5506 122.215 71.4307 122.179 71.3474 122.103C71.2697 122.032 71.2299 121.967 71.228 121.906C71.226 121.84 71.2375 121.773 71.2625 121.705C71.293 121.644 71.3641 121.584 71.4758 121.526C71.784 121.359 72.0944 121.174 72.4069 120.97C72.7193 120.761 73.0126 120.549 73.287 120.334C73.5668 120.12 73.8142 119.906 74.0292 119.693C74.2442 119.481 74.4139 119.285 74.5381 119.105C74.6621 118.919 74.7221 118.76 74.718 118.627C74.712 118.427 74.6158 118.281 74.4294 118.19C74.2482 118.092 73.9498 118.05 73.5343 118.062C73.2915 118.07 73.0895 118.088 72.9283 118.117C72.7672 118.146 72.6276 118.175 72.5096 118.202C72.3968 118.224 72.2919 118.236 72.1948 118.239C72.0221 118.244 71.9327 118.147 71.9267 117.947C71.9239 117.856 71.9481 117.762 71.9991 117.663C72.0501 117.564 72.1344 117.492 72.2518 117.446C72.839 117.216 73.3035 116.947 73.6453 116.64C73.9869 116.327 74.1521 115.985 74.1409 115.615C74.1342 115.391 73.9581 115.285 73.6127 115.295C73.4508 115.3 73.2679 115.324 73.0639 115.366C72.86 115.409 72.6617 115.46 72.4691 115.521C72.2817 115.575 72.1211 115.622 71.9872 115.662C71.8534 115.703 71.7703 115.724 71.738 115.725C71.684 115.726 71.643 115.709 71.6149 115.674C71.5866 115.632 71.5719 115.59 71.5706 115.548C71.5689 115.493 71.6069 115.41 71.6846 115.299C71.7622 115.187 71.8749 115.072 72.0225 114.952C72.1699 114.826 72.3477 114.721 72.5557 114.636C72.769 114.544 73.0079 114.495 73.2723 114.487C73.5421 114.479 73.7814 114.532 73.9901 114.647C74.1987 114.756 74.3654 114.911 74.4903 115.114C74.6153 115.316 74.6818 115.551 74.6898 115.817C74.6979 116.084 74.6303 116.35 74.4871 116.615C74.3439 116.88 74.167 117.103 73.9564 117.285C74.2169 117.326 74.4466 117.419 74.6454 117.565C74.8495 117.704 75.0088 117.881 75.1233 118.096C75.2376 118.305 75.2987 118.536 75.3063 118.791Z" fill="#222222"/>
<path d="M67.6448 122.206C67.5206 122.209 67.4274 122.164 67.3652 122.068C67.113 122.125 66.8687 122.171 66.6321 122.209C66.3956 122.246 66.1856 122.268 66.0021 122.273C65.8834 122.277 65.7989 122.252 65.7487 122.199C65.6985 122.146 65.6717 122.062 65.6682 121.947C65.6643 121.82 65.7925 121.682 66.0527 121.535C66.3128 121.382 66.7357 121.257 67.3215 121.16C67.3507 120.874 67.3993 120.518 67.4675 120.092C67.5354 119.659 67.6106 119.199 67.6931 118.712C67.7808 118.218 67.8663 117.739 67.9495 117.276C67.7676 117.512 67.5772 117.736 67.3784 117.948C67.1793 118.154 66.99 118.324 66.8104 118.456C66.6306 118.583 66.4732 118.648 66.3383 118.652C66.2088 118.656 66.1413 118.567 66.1358 118.386C66.1336 118.313 66.1898 118.208 66.3045 118.071C66.4246 117.934 66.5761 117.763 66.7589 117.557C66.9471 117.352 67.1478 117.112 67.361 116.839C67.5742 116.566 67.781 116.259 67.9814 115.92C68.1818 115.58 68.3487 115.205 68.4821 114.795C68.5269 114.666 68.5757 114.586 68.6288 114.554C68.6818 114.522 68.7273 114.506 68.765 114.505C68.846 114.502 68.9201 114.542 68.9874 114.625C69.0546 114.702 69.0919 114.865 69.0994 115.113C69.1007 115.155 69.0784 115.314 69.0327 115.588C68.9868 115.856 68.9244 116.204 68.8455 116.63C68.772 117.057 68.6862 117.526 68.5883 118.039C68.4957 118.551 68.4034 119.069 68.3112 119.593C68.219 120.118 68.134 120.611 68.0562 121.074C68.3201 121.048 68.5977 121.031 68.8891 121.022C69.1049 121.015 69.2564 121.023 69.3435 121.045C69.4358 121.06 69.4906 121.086 69.5078 121.121C69.5303 121.151 69.5422 121.187 69.5435 121.23C69.5453 121.29 69.4692 121.362 69.3151 121.446C69.1608 121.523 68.958 121.605 68.7068 121.691C68.4555 121.778 68.1826 121.862 67.888 121.944C67.8284 122.115 67.7473 122.202 67.6448 122.206Z" fill="#222222"/>
<path d="M61.4693 121.929C61.1401 121.938 60.8324 121.854 60.5461 121.674C60.2651 121.489 60.0353 121.214 59.8568 120.849C59.6784 120.485 59.5811 120.036 59.565 119.503C59.5509 119.037 59.6048 118.586 59.7267 118.152C59.854 117.718 59.9965 117.341 60.1543 117.021C60.0883 116.98 60.0529 116.881 60.0481 116.724C60.0417 116.512 60.0894 116.301 60.1911 116.092C60.298 115.876 60.4406 115.681 60.6189 115.506C60.8027 115.33 61.0063 115.188 61.2299 115.078C61.4588 114.968 61.692 114.909 61.9294 114.902C62.3072 114.891 62.6396 114.99 62.9268 115.2C63.2192 115.403 63.4494 115.69 63.6172 116.061C63.7905 116.432 63.8844 116.859 63.899 117.344C63.9186 117.992 63.8693 118.594 63.7511 119.149C63.6326 119.698 63.4608 120.18 63.2357 120.593C63.0159 121.006 62.7529 121.329 62.4467 121.562C62.1459 121.796 61.8201 121.918 61.4693 121.929ZM61.0831 116.119C61.138 116.148 61.1664 116.196 61.1684 116.262C61.1694 116.293 61.1624 116.329 61.1474 116.372C61.1378 116.409 61.1044 116.467 61.0474 116.548C60.9694 116.647 60.8879 116.81 60.803 117.037C60.718 117.264 60.6367 117.524 60.5592 117.818C60.4816 118.111 60.4206 118.416 60.3762 118.733C60.3316 119.043 60.3135 119.338 60.3219 119.617C60.3369 120.113 60.4374 120.489 60.6233 120.744C60.8091 120.993 61.0558 121.113 61.3634 121.104C61.6008 121.097 61.8301 120.999 62.0513 120.81C62.2722 120.616 62.4695 120.352 62.6431 120.019C62.8165 119.681 62.9506 119.292 63.0453 118.852C63.1455 118.413 63.1878 117.938 63.1725 117.43C63.1619 117.078 63.1066 116.771 63.0068 116.507C62.9071 116.243 62.7739 116.038 62.6075 115.891C62.4464 115.745 62.2633 115.674 62.0583 115.681C61.8424 115.687 61.6547 115.732 61.4952 115.816C61.3357 115.899 61.1983 116.001 61.0831 116.119Z" fill="#222222"/>
<path d="M50.2067 122.824C50.061 122.828 49.9409 122.786 49.8464 122.698C49.7574 122.61 49.7102 122.481 49.7051 122.311C49.7007 122.166 49.7246 122.062 49.7767 122C49.8287 121.932 49.9194 121.896 50.0489 121.892C50.1029 121.89 50.1543 121.894 50.2033 121.905C50.2574 121.91 50.3279 121.92 50.4148 121.935C50.5017 121.951 50.621 121.965 50.7726 121.979C51.3876 121.596 51.8784 121.215 52.245 120.834C52.6114 120.447 52.7877 120.026 52.774 119.572C52.7697 119.433 52.7182 119.334 52.6192 119.276C52.5256 119.219 52.4003 119.183 52.2433 119.17C52.0914 119.15 51.929 119.137 51.756 119.13C51.5831 119.129 51.4127 119.122 51.2449 119.109C51.0769 119.09 50.9219 119.055 50.78 119.005C50.638 118.954 50.522 118.87 50.432 118.751C50.3474 118.633 50.302 118.47 50.2958 118.264C50.2833 117.852 50.3303 117.442 50.4368 117.032C50.543 116.617 50.6698 116.252 50.8169 115.938C50.7136 115.917 50.6424 115.883 50.6032 115.836C50.5691 115.782 50.5509 115.716 50.5486 115.637C50.5462 115.559 50.614 115.481 50.7521 115.404C50.8902 115.327 51.069 115.255 51.2884 115.187C51.3567 115.125 51.4125 115.093 51.4557 115.091C51.488 115.09 51.518 115.099 51.5455 115.116C51.7973 115.048 52.071 114.988 52.3665 114.937C52.6618 114.879 52.9548 114.834 53.2455 114.801C53.5362 114.768 53.8029 114.748 54.0458 114.74C54.3479 114.731 54.568 114.773 54.7058 114.866C54.8435 114.953 54.914 115.054 54.9175 115.169C54.9195 115.235 54.8944 115.297 54.8421 115.353C54.7949 115.403 54.7121 115.433 54.5936 115.442C54.545 115.444 54.4429 115.459 54.2871 115.488C54.1366 115.511 53.9511 115.541 53.7308 115.577C53.5104 115.614 53.274 115.655 53.0215 115.699C52.769 115.743 52.5217 115.784 52.2798 115.821C52.0379 115.859 51.8174 115.89 51.6183 115.914C51.5633 116.061 51.4983 116.233 51.4232 116.429C51.3535 116.626 51.284 116.828 51.2147 117.036C51.1506 117.238 51.0971 117.434 51.0542 117.623C51.0111 117.806 50.9916 117.964 50.9956 118.098C51 118.243 51.0837 118.331 51.2467 118.363C51.4097 118.394 51.6047 118.416 51.8319 118.427C52.0104 118.434 52.1945 118.449 52.3843 118.474C52.5741 118.499 52.7511 118.548 52.9154 118.622C53.085 118.695 53.2209 118.813 53.323 118.973C53.4305 119.134 53.4885 119.356 53.4971 119.641C53.5057 119.926 53.4443 120.216 53.3127 120.511C53.1812 120.806 53.0008 121.09 52.7714 121.364C52.542 121.637 52.282 121.882 51.9915 122.097C51.7009 122.312 51.4009 122.484 51.0916 122.615C50.7877 122.745 50.4927 122.815 50.2067 122.824Z" fill="#222222"/>
<path d="M44.017 121.747C44.384 121.735 44.7353 121.655 45.0711 121.505C45.4067 121.35 45.7032 121.153 45.9607 120.915C46.2179 120.67 46.4178 120.404 46.5603 120.114C46.7082 119.825 46.7779 119.541 46.7695 119.262C46.7653 119.123 46.7137 119.024 46.6147 118.967C46.521 118.903 46.3956 118.864 46.2386 118.851C46.0867 118.831 45.919 118.821 45.7353 118.821C45.5677 118.814 45.3999 118.803 45.2321 118.79C45.0643 118.777 44.9067 118.746 44.7593 118.695C44.6172 118.639 44.5011 118.552 44.4111 118.433C44.3265 118.314 44.2811 118.152 44.2749 117.946C44.267 117.686 44.3066 117.387 44.3937 117.051C44.4805 116.709 44.5898 116.393 44.7215 116.105C44.6287 116.071 44.5653 116.027 44.5312 115.974C44.4972 115.92 44.4795 115.869 44.478 115.821C44.4754 115.736 44.5135 115.656 44.5923 115.581C44.6708 115.5 44.7825 115.442 44.9273 115.407C45.0023 115.387 45.0854 115.366 45.1766 115.345C45.2708 115.245 45.3557 115.194 45.4312 115.192C45.4906 115.19 45.5427 115.216 45.5875 115.269C45.8238 115.225 46.0738 115.187 46.3375 115.155C46.6064 115.117 46.8648 115.088 47.1127 115.068C47.3603 115.042 47.5732 115.027 47.7513 115.022C48.0697 115.012 48.2922 115.048 48.4189 115.129C48.551 115.21 48.619 115.317 48.623 115.45C48.6262 115.553 48.4995 115.651 48.243 115.743C47.9864 115.83 47.6268 115.908 47.1644 115.976C46.7072 116.038 46.1739 116.085 45.5644 116.115C45.4886 116.287 45.4026 116.478 45.3063 116.687C45.2152 116.89 45.1348 117.089 45.0651 117.286C45.0008 117.482 44.9707 117.646 44.9747 117.779C44.9791 117.925 45.0628 118.013 45.2258 118.045C45.3888 118.076 45.5838 118.098 45.811 118.109C45.9895 118.116 46.1736 118.131 46.3634 118.156C46.5532 118.18 46.7302 118.23 46.8945 118.303C47.0641 118.377 47.2 118.494 47.3021 118.655C47.4096 118.815 47.4676 119.038 47.4762 119.323C47.4863 119.656 47.4312 119.979 47.311 120.292C47.1963 120.605 47.0323 120.897 46.8191 121.171C46.6057 121.438 46.3617 121.673 46.0869 121.875C45.8122 122.077 45.5199 122.238 45.2102 122.356C44.9059 122.475 44.6027 122.538 44.3005 122.547C44.0685 122.554 43.8897 122.539 43.7644 122.5C43.6443 122.461 43.5618 122.409 43.5166 122.344C43.4766 122.272 43.4553 122.194 43.4528 122.109C43.4498 122.012 43.4851 121.929 43.5587 121.86C43.6376 121.791 43.7904 121.753 44.017 121.747Z" fill="#222222"/>
<path d="M38.0651 123.191C37.9194 123.195 37.7993 123.153 37.7048 123.065C37.6158 122.977 37.5686 122.848 37.5635 122.678C37.5591 122.533 37.583 122.429 37.6351 122.367C37.6871 122.299 37.7778 122.262 37.9073 122.259C37.9613 122.257 38.0127 122.261 38.0617 122.272C38.1158 122.276 38.1863 122.286 38.2732 122.302C38.3601 122.318 38.4794 122.332 38.631 122.346C39.246 121.963 39.7368 121.582 40.1034 121.201C40.4698 120.814 40.6461 120.393 40.6324 119.939C40.6281 119.799 40.5766 119.701 40.4776 119.643C40.384 119.586 40.2587 119.55 40.1017 119.536C39.9498 119.517 39.7874 119.504 39.6144 119.497C39.4415 119.496 39.2711 119.489 39.1033 119.476C38.9353 119.457 38.7803 119.422 38.6383 119.371C38.4964 119.321 38.3804 119.237 38.2904 119.118C38.2058 119 38.1604 118.837 38.1542 118.631C38.1417 118.219 38.1887 117.809 38.2952 117.399C38.4014 116.984 38.5282 116.619 38.6753 116.305C38.572 116.284 38.5008 116.25 38.4616 116.203C38.4275 116.149 38.4093 116.083 38.4069 116.004C38.4046 115.925 38.4724 115.848 38.6105 115.771C38.7486 115.694 38.9274 115.622 39.1468 115.554C39.2151 115.492 39.2709 115.46 39.3141 115.458C39.3464 115.457 39.3764 115.466 39.4039 115.483C39.6557 115.415 39.9294 115.355 40.2249 115.304C40.5202 115.246 40.8132 115.201 41.1039 115.168C41.3946 115.135 41.6613 115.115 41.9042 115.107C42.2063 115.098 42.4264 115.14 42.5642 115.233C42.7019 115.32 42.7724 115.421 42.7759 115.536C42.7779 115.602 42.7528 115.664 42.7005 115.72C42.6533 115.77 42.5705 115.8 42.452 115.809C42.4034 115.811 42.3013 115.826 42.1455 115.855C41.995 115.878 41.8095 115.907 41.5892 115.944C41.3688 115.981 41.1324 116.022 40.8799 116.066C40.6274 116.11 40.3801 116.151 40.1382 116.188C39.8963 116.226 39.6758 116.257 39.4767 116.281C39.4217 116.428 39.3567 116.6 39.2816 116.796C39.2119 116.992 39.1424 117.195 39.0731 117.403C39.009 117.605 38.9555 117.801 38.9126 117.99C38.8695 118.173 38.85 118.331 38.854 118.465C38.8584 118.61 38.9421 118.698 39.1051 118.73C39.2681 118.761 39.4631 118.783 39.6903 118.794C39.8688 118.801 40.0529 118.816 40.2427 118.841C40.4325 118.866 40.6095 118.915 40.7738 118.989C40.9434 119.062 41.0793 119.179 41.1814 119.34C41.2889 119.501 41.3469 119.723 41.3555 120.008C41.3641 120.293 41.3027 120.582 41.1711 120.877C41.0396 121.173 40.8592 121.457 40.6298 121.731C40.4004 122.004 40.1404 122.249 39.8499 122.464C39.5593 122.679 39.2593 122.851 38.95 122.982C38.6461 123.112 38.3511 123.182 38.0651 123.191Z" fill="#222222"/>
</g>
<defs>
<filter id="filter0_d_36_8886" x="0.0297852" y="0.0296631" width="122.849" height="146.113" filterUnits="userSpaceOnUse" color-interpolation-filters="sRGB">
<feFlood flood-opacity="0" result="BackgroundImageFix"/>
<feColorMatrix in="SourceAlpha" type="matrix" values="0 0 0 0 0 0 0 0 0 0 0 0 0 0 0 0 0 0 127 0" result="hardAlpha"/>
<feMorphology radius="1" operator="dilate" in="SourceAlpha" result="effect1_dropShadow_36_8886"/>
<feOffset dx="3" dy="4"/>
<feGaussianBlur stdDeviation="2"/>
<feComposite in2="hardAlpha" operator="out"/>
<feColorMatrix type="matrix" values="0 0 0 0 0 0 0 0 0 0 0 0 0 0 0 0 0 0 0.12 0"/>
<feBlend mode="normal" in2="BackgroundImageFix" result="effect1_dropShadow_36_8886"/>
<feBlend mode="normal" in="SourceGraphic" in2="effect1_dropShadow_36_8886" result="shape"/>
</filter>
<clipPath id="clip0_36_8886">
<rect x="15.3569" y="16.8644" width="83" height="79" transform="rotate(-1.73115 15.3569 16.8644)" fill="white"/>
</clipPath>
</defs>
</svg>
