<svg width="558" height="239" viewBox="0 0 558 239" fill="none" xmlns="http://www.w3.org/2000/svg">
<path d="M537.335 24.2188C541.141 39.2302 540.598 56.5051 535.705 76.0437C530.036 98.3799 520.394 111.274 506.779 114.726C498.837 116.739 491.365 115.475 484.362 110.935C477.446 106.372 472.97 100.076 470.935 92.0462C466.687 75.2894 468.171 58.6119 475.388 42.0136C483.19 24.0596 495.207 13.0248 511.441 8.90939C517.899 7.27208 523.426 7.82155 528.02 10.5578C532.593 13.2068 535.698 17.7605 537.335 24.2188ZM535.538 25.3712C534.431 21.0075 532.323 17.2694 529.211 14.157C525.684 10.5 521.869 9.19151 517.767 10.2314L515.541 10.7956C521.551 12.1515 525.95 15.216 528.739 19.9891C531.179 24.8507 533.619 29.7123 536.059 34.5739C535.948 33.7663 535.888 32.2488 535.881 30.0214C535.94 28.0559 535.825 26.5058 535.538 25.3712ZM526.224 22.1593C522.077 16.0586 516.992 13.7716 510.97 15.2983C510.098 15.5196 509.336 16.1772 508.684 17.2712C513.36 18.1292 519.002 20.4143 525.609 24.1266L526.224 22.1593ZM531.35 36.8823C530.045 31.7331 526.669 27.759 521.222 24.96C516.541 22.6171 511.297 21.5317 505.489 21.7038C510.78 23.8918 515.708 28.1228 520.271 34.3968C524.395 40.039 527.231 45.9147 528.78 52.0239C531.634 63.2824 530.219 74.3695 524.533 85.285C518.653 96.5287 510.127 103.567 498.956 106.399C496.076 107.129 491.608 106.543 485.553 104.642C487.067 106.951 489.3 108.614 492.252 109.631C495.203 110.648 497.988 110.824 500.606 110.16C501.566 109.917 502.897 109.487 504.598 108.869C506.277 108.165 507.553 107.702 508.426 107.481C519.771 104.605 527.403 94.589 531.321 77.4339C534.527 62.9672 534.536 49.4499 531.35 36.8823ZM525.275 51.9373C523.571 45.2171 520.341 39.0697 515.584 33.4952C509.774 26.7012 503.902 24.0565 497.968 25.5611C494.04 26.5567 490.132 30.009 486.243 35.9179C482.701 41.3671 480.741 46.276 480.363 50.6447C483.497 47.6208 485.544 45.9871 486.504 45.7437L487.651 45.871C487.504 47.4874 486.399 50.0897 484.336 53.6778C482.165 57.572 480.864 60.3168 480.433 61.9124L479.483 62.0138C477.388 62.5448 476.288 66.632 476.182 74.2753C476.051 80.7177 476.383 85.5098 477.18 88.6517C478.508 93.8882 481.338 98.0934 485.673 101.267C490.007 104.441 494.705 105.386 499.767 104.103C509.804 101.559 517.282 94.6007 522.201 83.2291C526.861 72.6663 527.886 62.2357 525.275 51.9373Z" fill="#C3471F"/>
<path d="M459.361 25.1777C456.948 28.4831 452.088 31.2943 444.78 33.6114C437.472 35.9285 432.578 38.6088 430.099 41.6524L430.663 43.8779C432.544 51.2963 433.881 62.6144 434.674 77.8322C435.532 92.9407 436.901 104.204 438.782 111.622C439.18 113.193 440.061 115.571 441.426 118.754C442.855 121.829 443.748 124.25 444.103 126.017L445.1 130.502L442.613 131.132C433.444 118.781 428.439 110.947 427.599 107.631C426.16 101.958 424.811 93.3364 423.55 81.7669C422.354 70.0881 421.037 61.4122 419.598 55.7393C418.381 50.9392 416.507 48.8599 413.977 49.5016C412.493 49.8777 410.454 50.8125 407.86 52.306C405.354 53.7774 403.359 54.7012 401.875 55.0773C401.875 55.0773 399.954 55.1929 396.112 55.4239C396.021 54.3324 396.519 53.1843 397.607 51.9797C399.435 50.0301 400.349 49.0553 400.349 49.0553C399.365 48.8402 396.821 48.8814 392.717 49.1789C389.53 49.4296 387.071 48.8918 385.342 47.5655L387.39 43.0057C389.444 43.4138 392.184 43.0444 395.608 41.8975L395.418 43.8963C397.34 43.7807 399.566 43.4021 402.097 42.7605C404.977 42.0303 408.597 40.5552 412.957 38.3353C418.123 35.6322 421.688 33.939 423.651 33.2555C427.468 31.8235 432.944 30.1567 440.078 28.2551C447.933 26.2637 453.442 24.7278 456.604 23.6473L459.361 25.1777ZM434.793 34.8892C429.644 36.1946 424.093 38.1128 418.14 40.6438C418.426 41.4071 418.876 42.0826 419.49 42.6702C423.848 40.079 428.95 37.4853 434.793 34.8892ZM410.949 45.2534L410.584 43.8133L408.097 44.4439L408.462 45.8839L410.949 45.2534ZM430.604 95.3044L429.841 92.2934L428.663 92.5922L429.426 95.6031L430.604 95.3044Z" fill="#C3471F"/>
<path d="M374.605 41.7885C374.252 47.3581 376.266 61.8949 380.645 85.399C384.425 105.804 387.587 121.025 390.132 131.062C390.22 131.411 390.571 131.879 391.185 132.467C391.776 132.967 392.116 133.392 392.204 133.741C392.669 135.574 392.132 138.218 390.593 141.673C389.054 145.128 387.412 147.077 385.666 147.52C382.088 148.427 372.033 138.808 355.501 118.664C337.478 96.6678 326.039 84.5206 321.183 82.2219C319.834 83.493 320.81 94.6703 324.111 115.754C326.141 128.522 328.181 141.334 330.233 154.189L325.935 152.074C325.632 153.08 325.757 154.302 326.307 155.741C327.255 158.381 327.696 159.569 327.629 159.307C327.629 159.307 327.643 160.279 327.672 162.223L319.614 162.315L311.389 131.519C309.973 125.933 308.438 117.498 306.785 106.214C304.774 92.4196 304.475 84.6466 305.889 82.8949C303.687 70.9136 305.467 64.1928 311.227 62.7325C315.678 61.6041 320.498 63.215 325.688 67.5653C327.265 69.0231 330.914 72.9745 336.635 79.4193C340.844 84.2969 346.311 90.1093 353.038 96.8566C358.712 102.384 364.397 107.956 370.093 113.571C370.314 107.849 369.451 101.148 367.504 93.4676C366.929 91.1985 366.001 87.9041 364.72 83.5846C363.417 79.1778 362.489 75.8835 361.936 73.7016C358.706 60.9595 357.92 51.2664 359.58 44.6224L366.193 43.7816L368.858 47.1467L370.152 42.3601L374.605 41.7885ZM367.418 47.5117L365.388 47.7477L371.821 91.2587L373.982 90.9895L367.418 47.5117ZM318.259 119.049L316.229 119.285L317.101 125.473L319.131 125.237L318.259 119.049Z" fill="#C3471F"/>
<path d="M299.463 64.1823C296.573 68.5374 291.589 73.6092 284.511 79.3976C277.041 85.4712 271.081 89.0722 266.63 90.2006C266.019 90.3555 265.036 90.326 263.682 90.1121C262.414 89.8761 261.475 89.8355 260.864 89.9904C256.064 91.2073 254.571 95.3941 256.385 102.551C256.651 103.598 257.049 104.983 257.578 106.707C258.108 108.43 258.451 109.597 258.605 110.208C259.07 112.041 259.155 114.759 258.862 118.363C258.655 121.945 258.784 124.653 259.249 126.486C260.778 126.655 261.543 126.74 261.543 126.74C263.986 126.12 267.41 124.602 271.813 122.186C276.194 119.682 279.606 118.12 282.05 117.501C282.399 117.412 285.859 117.139 292.431 116.68L293.002 121.133C288.25 123.638 283.929 127.845 280.04 133.754C276.639 135.359 269.466 138.757 258.521 143.947C259.05 145.67 260.051 147.785 261.522 150.291C263.081 152.776 264.048 154.76 264.424 156.243C264.756 157.552 264.914 158.906 264.897 160.303C271.1 160.96 277.269 160.743 283.401 159.653C285.431 159.231 291.377 157.77 301.239 155.27C303.944 154.584 306.762 154.706 309.691 155.635L310.128 159.007L306.401 161.345C303.43 160.984 301.945 160.803 301.945 160.803C297.581 161.909 291.41 164.496 283.431 168.562C275.43 172.541 269.247 175.084 264.884 176.19C261.48 177.053 259.369 175.87 258.55 172.641C258.461 172.291 258.236 170.119 257.873 166.124C256.495 165.452 254.823 164.901 252.856 164.47C254.058 158.221 253.863 151.954 252.27 145.671C251.186 141.394 249.255 138.54 246.477 137.108C247.802 135.007 249.075 133.802 250.297 133.492C250.733 133.381 251.192 133.358 251.673 133.422L238.939 86.4926L234.807 85.0323L234.239 81.6931C234.85 81.5382 235.8 81.4368 237.088 81.3888C238.463 81.3188 239.5 81.1952 240.198 81.0182C242.991 80.3102 244.034 78.5598 243.326 75.767C243.193 75.2433 243.016 74.7307 242.796 74.2292C244.892 74.0694 247.941 74.7363 251.942 76.2298L288.78 62.7108C288.78 62.7108 291.924 62.4712 298.211 61.9918L299.463 64.1823ZM289.584 68.0801L267.696 75.7191L267.897 77.0614L289.818 69.5533L289.584 68.0801ZM271.876 81.7651L251.732 81.9955C251.867 83.2616 252.059 85.1171 252.307 87.562C257.306 87.1306 259.937 86.8817 260.199 86.8153C261.682 86.4392 263.699 85.6027 266.25 84.3059C268.888 82.9869 270.763 82.14 271.876 81.7651ZM247.157 85.3845L242.769 85.661L242.704 85.956L242.837 86.4797C243.147 87.7015 244.71 88.1877 247.526 87.9382L247.157 85.3845ZM253.137 110.619C252.76 109.136 251.877 106.201 250.487 101.817C249.361 98.1082 248.554 95.1083 248.066 92.817C246.737 93.8041 245.319 94.2564 243.812 94.174C243.966 94.4137 244.679 95.3941 245.951 97.115C248.079 100.012 249.84 104.21 251.234 109.708C252.473 114.596 253.419 120.161 254.073 126.404C255.02 122.078 254.708 116.816 253.137 110.619ZM276.577 166.259C276.511 165.997 275.81 165.246 274.473 164.006C274.321 164.137 274.114 164.236 273.852 164.303C272.892 164.546 271.527 164.474 269.757 164.087C267.987 163.7 266.709 163.606 265.923 163.805C264.963 164.048 263.59 164.861 261.804 166.242L262.376 170.695C266.371 170.333 268.543 170.107 268.892 170.019C270.725 169.554 273.309 168.388 276.644 166.521L276.577 166.259Z" fill="#C3471F"/>
<path d="M225.687 101.416C227.855 109.969 229.963 123.414 232.011 141.75C234.263 162.357 234.633 175.36 233.123 180.759L231.058 180.307C231.237 175.153 230.652 169.914 229.302 164.59C227.488 157.433 225.214 149.929 222.48 142.077C220.194 150.644 219.825 157.983 221.374 164.092C222.17 167.234 223.576 169.664 225.591 171.383L222.318 172.212C220.217 170.887 218.68 168.305 217.706 164.465C216.158 158.355 216.138 149.118 217.648 136.754C219.244 124.367 219.268 115.119 217.719 109.009C217.719 109.009 217.324 108.181 216.532 106.524C215.949 108.622 213.372 115.127 208.801 126.039C205.508 133.933 203.543 140.654 202.906 146.203L200.749 147.586C192.917 143.441 185.271 132.515 177.81 114.808C175.17 122.351 174.283 131.307 175.147 141.677C175.601 146.763 177.116 156.039 179.694 169.504C181.938 181.288 183.093 190.423 183.158 196.909C180.555 195.432 176.673 193.677 171.513 191.641C169.963 185.16 169.137 176.406 169.035 165.379C168.99 152.015 168.754 143.204 168.325 138.948C167.323 133.164 166.321 127.381 165.319 121.597C163.672 112.169 163.327 106.962 164.285 105.976C165.418 105.317 166.497 104.626 167.521 103.902C169.112 102.848 169.796 101.885 169.575 101.012C169.464 100.576 169.168 100.14 168.686 99.7052L172.09 98.8422C174.416 102.154 177.714 105.822 181.986 109.848L181.523 108.572C182.776 110.948 185.253 113.943 188.956 117.555C193.249 121.668 195.989 124.596 197.174 126.339L198.518 126.695C200.557 122.649 201.626 115.69 201.724 105.819C201.912 96.669 202.702 91.1744 204.094 89.3355C204.507 88.7663 205.923 87.7572 208.342 86.3079C209.955 85.3417 210.866 83.6245 211.076 81.1562L213.694 80.4924C220.605 90.1652 224.603 97.1399 225.687 101.416ZM214.659 94.738L213.696 90.9415L212.387 91.2734L213.35 95.0699L214.659 94.738ZM193.86 134.703L192.499 129.336C192.101 127.765 190.507 124.407 187.716 119.263C184.904 114.031 182.994 110.893 181.986 109.848C184.105 116.742 185.605 121.191 186.485 123.198C188.753 128.846 191.211 132.681 193.86 134.703Z" fill="#C3471F"/>
<path d="M151.88 101.598C148.99 105.953 144.006 111.024 136.928 116.813C129.458 122.886 123.497 126.487 119.046 127.616C118.435 127.771 117.453 127.741 116.098 127.527C114.831 127.291 113.892 127.251 113.281 127.406C108.481 128.623 106.988 132.809 108.802 139.966C109.067 141.013 109.465 142.399 109.995 144.122C110.525 145.845 110.867 147.012 111.022 147.623C111.487 149.456 111.572 152.175 111.278 155.779C111.072 159.361 111.201 162.068 111.665 163.901C113.195 164.07 113.959 164.155 113.959 164.155C116.403 163.536 119.826 162.018 124.229 159.601C128.61 157.097 132.023 155.535 134.466 154.916C134.815 154.827 138.276 154.554 144.847 154.095L145.419 158.548C140.667 161.053 136.346 165.26 132.457 171.169C129.055 172.775 121.882 176.172 110.937 181.362C111.467 183.085 112.467 185.2 113.939 187.707C115.497 190.191 116.465 192.175 116.841 193.659C117.173 194.968 117.33 196.321 117.313 197.719C123.517 198.375 129.685 198.158 135.818 197.068C137.847 196.646 143.793 195.185 153.655 192.685C156.361 191.999 159.178 192.121 162.107 193.05L162.544 196.423L158.818 198.761C155.847 198.399 154.361 198.218 154.361 198.218C149.998 199.325 143.826 201.911 135.847 205.977C127.846 209.956 121.664 212.499 117.3 213.605C113.896 214.468 111.785 213.285 110.966 210.056C110.878 209.707 110.652 207.535 110.29 203.54C108.912 202.867 107.239 202.316 105.273 201.886C106.475 195.636 106.279 189.37 104.686 183.086C103.602 178.809 101.671 175.955 98.8931 174.523C100.218 172.422 101.492 171.217 102.714 170.907C103.15 170.797 103.608 170.773 104.089 170.837L91.3556 123.908L87.2235 122.448L86.6556 119.108C87.2666 118.953 88.2161 118.852 89.5044 118.804C90.8799 118.734 91.9167 118.611 92.6149 118.434C95.4077 117.725 96.4501 115.975 95.7421 113.182C95.6093 112.659 95.4329 112.146 95.2129 111.645C97.3087 111.485 100.357 112.152 104.358 113.645L141.196 100.126C141.196 100.126 144.34 99.8864 150.628 99.407L151.88 101.598ZM142 105.495L120.112 113.134L120.313 114.477L142.235 106.969L142 105.495ZM124.292 119.18L104.148 119.411C104.283 120.677 104.475 122.532 104.723 124.977C109.723 124.546 112.353 124.297 112.615 124.231C114.099 123.854 116.116 123.018 118.667 121.721C121.304 120.402 123.18 119.555 124.292 119.18ZM99.5736 122.8L95.1852 123.076L95.1207 123.371L95.2535 123.895C95.5632 125.117 97.1262 125.603 99.9423 125.353L99.5736 122.8ZM105.553 148.035C105.177 146.551 104.294 143.617 102.904 139.232C101.778 135.523 100.971 132.524 100.483 130.232C99.1538 131.219 97.7359 131.672 96.2288 131.589C96.3825 131.829 97.0954 132.809 98.3677 134.53C100.495 137.428 102.256 141.625 103.65 147.124C104.889 152.011 105.836 157.576 106.49 163.82C107.436 159.493 107.124 154.231 105.553 148.035ZM128.994 203.674C128.927 203.413 128.226 202.661 126.89 201.421C126.737 201.553 126.53 201.652 126.269 201.718C125.309 201.961 123.943 201.889 122.173 201.502C120.403 201.115 119.125 201.021 118.34 201.22C117.38 201.464 116.007 202.276 114.221 203.658L114.792 208.111C118.787 207.748 120.959 207.522 121.309 207.434C123.141 206.969 125.725 205.803 129.06 203.936L128.994 203.674Z" fill="#C3471F"/>
<path d="M78.1032 138.832C80.2716 147.385 82.3797 160.829 84.4275 179.166C86.6794 199.772 87.05 212.775 85.5393 218.174L83.4742 217.722C83.6536 212.568 83.0685 207.329 81.7189 202.005C79.9045 194.849 77.6305 187.344 74.8967 179.492C72.6103 188.06 72.2415 195.398 73.7903 201.507C74.5869 204.649 75.9925 207.08 78.0072 208.798L74.7344 209.628C72.6336 208.303 71.0965 205.72 70.123 201.88C68.5741 195.771 68.5545 186.534 70.064 174.169C71.6608 161.782 71.6848 152.534 70.136 146.425C70.136 146.425 69.7402 145.596 68.9486 143.939C68.3659 146.037 65.7888 152.542 61.2173 163.454C57.9242 171.348 55.9592 178.07 55.3225 183.618L53.1652 185.001C45.3338 180.856 37.6874 169.93 30.226 152.223C27.5869 159.766 26.6994 168.722 27.5635 179.092C28.017 184.178 29.5327 193.454 32.1103 206.919C34.3549 218.704 35.5097 227.839 35.5748 234.324C32.9713 232.848 29.0895 231.092 23.9292 229.056C22.3791 222.576 21.5531 213.822 21.4511 202.794C21.4069 189.43 21.1703 180.62 20.7413 176.363C19.7395 170.579 18.7377 164.796 17.7358 159.012C16.0887 149.584 15.7439 144.377 16.7015 143.391C17.8348 142.732 18.9135 142.041 19.9374 141.317C21.5281 140.264 22.2127 139.3 21.9915 138.428C21.8808 137.991 21.5846 137.556 21.1027 137.12L24.5065 136.258C26.8322 139.569 30.1308 143.238 34.4023 147.263L33.9395 145.988C35.1921 148.364 37.6696 151.358 41.372 154.971C45.6657 159.084 48.4051 162.012 49.59 163.755L50.9342 164.111C52.9735 160.064 54.0423 153.105 54.1407 143.235C54.3288 134.084 55.1185 128.59 56.51 126.751C56.9231 126.182 58.3391 125.172 60.7582 123.723C62.371 122.757 63.2825 121.04 63.4927 118.572L66.1109 117.908C73.0216 127.581 77.0191 134.555 78.1032 138.832ZM67.0752 132.153L66.1128 128.357L64.8036 128.689L65.7661 132.485L67.0752 132.153ZM46.2766 172.118L44.9159 166.751C44.5176 165.18 42.9233 161.822 40.133 156.678C37.3205 151.447 35.4103 148.308 34.4023 147.263C36.5215 154.157 38.0212 158.607 38.9013 160.613C41.1692 166.261 43.6276 170.096 46.2766 172.118Z" fill="#C3471F"/>
<path d="M544.706 144.495L544.268 144.72C544.29 144.855 544.356 145.092 544.468 145.432L543.931 145.568C543.973 145.684 543.873 145.265 543.631 144.311C542.944 141.603 541.819 140.447 540.257 140.843C539.72 140.979 539.049 141.689 538.244 142.972C537.449 144.241 537.117 145.137 537.251 145.662C537.32 145.936 537.491 146.185 537.764 146.408C538.033 146.619 538.293 146.82 538.545 147.01L538.205 147.325C537.658 147.07 537.085 146.961 536.485 146.999C536.429 147.178 536.396 147.498 536.385 147.958L535.866 148.089C535.263 147.061 534.73 145.635 534.267 143.809L534.044 142.933C533.775 141.871 533.673 140.944 533.739 140.153C533.987 140.179 534.389 140.737 534.945 141.828C535.276 142.531 535.605 143.229 535.933 143.92C536.12 143.555 536.386 142.828 536.731 141.737C537.015 140.802 537.311 140.117 537.62 139.683C538.074 139.022 538.707 138.589 539.518 138.383C540.425 138.153 541.25 138.426 541.993 139.203C542.517 139.768 543.049 140.662 543.587 141.884C543.96 142.754 544.333 143.625 544.706 144.495ZM541.682 140.081C541.581 140.031 541.43 139.961 541.23 139.873L540.478 140.063C540.773 140.077 541.175 140.083 541.682 140.081ZM541.106 139.237C540.792 138.796 540.318 138.656 539.686 138.817C538.755 139.053 538.084 139.661 537.672 140.641C538.027 140.437 538.377 140.291 538.723 140.203C538.819 140.179 538.951 140.177 539.122 140.198C539.292 140.218 539.419 140.217 539.502 140.196C539.645 140.16 539.906 140.011 540.284 139.75C540.66 139.477 540.934 139.306 541.106 139.237ZM538.944 140.624L538.461 140.746C538.007 140.861 537.599 141.327 537.234 142.143C536.882 142.956 536.77 143.594 536.9 144.056L536.923 144.145C537.16 143.679 537.834 142.505 538.944 140.624ZM535.9 146.271L535.506 144.714L535.309 144.764L535.704 146.321L535.9 146.271Z" fill="#C3471F"/>
<path d="M533.781 147.989C533.406 148.161 533.218 148.246 533.218 148.246C532.646 148.392 532.031 148.198 531.376 147.666C530.885 147.181 530.388 146.698 529.884 146.216C529.74 148.449 528.91 149.758 527.395 150.142C526.595 150.345 525.676 150.273 524.636 149.928C523.482 149.535 522.812 148.968 522.624 148.228C522.433 147.477 522.916 146.25 524.071 144.547C525.224 142.833 526.182 141.879 526.945 141.686C527.709 141.492 528.482 141.588 529.266 141.973C530.058 142.344 530.549 142.905 530.74 143.656C530.791 143.859 530.827 144.174 530.846 144.601C530.865 145.027 530.901 145.342 530.952 145.545C531.088 146.082 531.478 146.567 532.121 147.001C532.675 147.33 533.228 147.66 533.781 147.989ZM530.349 143.317C530.278 143.335 530.199 143.324 530.112 143.282C530.124 143.381 530.141 143.522 530.163 143.707C530.193 143.878 530.263 144.177 530.372 144.607C530.499 144.409 530.536 144.203 530.481 143.988C530.436 143.759 530.392 143.535 530.349 143.317ZM527.632 142.064C527.372 141.99 527.212 141.961 527.152 141.976C526.89 142.042 526.504 142.324 525.995 142.822C526.326 142.623 526.871 142.371 527.632 142.064ZM529.85 142.625C529.635 142.578 529.466 142.564 529.344 142.582C529.318 142.931 529.328 143.195 529.373 143.374C529.603 144.281 530.045 145.197 530.699 146.124C530.165 145.269 529.827 144.561 529.684 144C529.609 143.702 529.664 143.243 529.85 142.625ZM528.946 142.74L528.873 142.454C528.342 142.411 528.028 142.401 527.933 142.425C527.277 142.592 526.646 143.285 526.041 144.505C525.433 145.713 525.214 146.651 525.384 147.319C525.514 147.832 525.836 148.227 526.35 148.502C526.862 148.766 527.374 148.833 527.887 148.703C528.519 148.543 528.953 148.052 529.189 147.23C529.39 146.519 529.404 145.823 529.232 145.143C529.156 144.845 528.999 144.453 528.762 143.967C528.485 143.428 528.305 143.042 528.221 142.81L528.457 142.616C528.613 142.729 528.776 142.77 528.946 142.74ZM526.48 143.08L526.278 143.112C525.503 143.258 524.963 143.883 524.659 144.989C524.382 145.948 524.351 146.851 524.566 147.698C524.856 148.843 525.761 149.357 527.28 149.238C526.004 148.965 525.253 148.381 525.026 147.486C524.696 146.186 525.181 144.717 526.48 143.08ZM526.086 149.712C525.099 149.328 524.491 148.682 524.261 147.775C524.186 147.477 524.171 147.043 524.217 146.472C524.271 145.887 524.271 145.462 524.217 145.196C523.946 145.379 523.644 145.843 523.313 146.587C522.99 147.317 522.868 147.837 522.946 148.147C523.055 148.576 523.495 148.96 524.267 149.298C524.966 149.603 525.572 149.741 526.086 149.712ZM526.825 149.696L526.498 149.684L526.525 149.791L526.821 149.831L526.825 149.696Z" fill="#C3471F"/>
<path d="M518.993 141.683C520.585 147.958 521.347 151.79 521.28 153.178L520.953 153.166C520.961 152.796 520.965 152.611 520.965 152.611C520.816 152.026 520.503 151.566 520.024 151.23L519.995 152.019L519.49 152.204C518.96 151.818 518.54 151.01 518.228 149.781C517.892 148.457 517.505 146.454 517.066 143.772C516.624 141.078 516.235 139.069 515.899 137.744C515.781 137.279 515.617 136.933 515.408 136.707L515.604 136.505C515.753 136.543 515.915 136.629 516.089 136.763C516.22 136.882 516.36 137.006 516.506 137.133L516.718 136.166C517.339 136.313 517.815 137.036 518.145 138.337L518.993 141.683ZM517.962 138.593C517.935 138.485 517.757 138.01 517.429 137.166L517.111 137.19C516.878 138.074 516.908 139.095 517.202 140.252C517.35 140.837 517.541 141.315 517.775 141.687C517.775 141.687 517.841 141.169 517.972 140.133C518.056 139.464 518.053 138.951 517.962 138.593ZM518.294 141.403C518.12 142.07 518.056 142.492 518.101 142.671C518.219 143.137 518.411 143.469 518.678 143.668C518.643 143.181 518.515 142.427 518.294 141.403ZM518.594 145.365C518.485 144.936 518.327 144.512 518.119 144.095C518.034 144.46 518.141 145.232 518.441 146.413L518.604 147.058C518.704 147.451 518.869 147.727 519.099 147.884C519.03 147.61 518.943 147.194 518.84 146.636C518.745 146.063 518.663 145.64 518.594 145.365ZM519.687 146.897C519.698 148.393 519.747 149.313 519.835 149.659C519.826 149.624 519.973 149.853 520.276 150.348C520.326 149.941 520.268 149.365 520.105 148.62C519.96 148.047 519.82 147.473 519.687 146.897ZM519.398 150.113C519.386 150.065 519.142 149.804 518.665 149.328L518.761 149.779C518.884 150.116 519.047 150.634 519.25 151.332C519.247 151.32 519.282 151.108 519.355 150.695C519.408 150.403 519.422 150.209 519.398 150.113Z" fill="#C3471F"/>
<path d="M516.101 147.788C516.401 148.969 516.216 150.216 515.545 151.528C514.875 152.841 513.956 153.646 512.786 153.942C511.76 154.202 510.8 154.097 509.906 153.625C508.973 153.15 508.378 152.406 508.121 151.392C507.776 150.032 507.953 148.775 508.65 147.62C509.345 146.454 510.372 145.698 511.732 145.353C512.484 145.162 513.353 145.336 514.34 145.873C515.327 146.41 515.914 147.048 516.101 147.788ZM515.451 147.4C515.274 147.204 514.973 146.944 514.548 146.62C514.758 146.897 515.055 147.342 515.439 147.955L515.451 147.4ZM512.903 146.066L512.724 145.959L512.644 146.093L512.818 146.182L512.903 146.066ZM514.249 148.067C514.119 147.554 513.777 147.158 513.224 146.879C512.683 146.598 512.155 146.522 511.642 146.652C510.736 146.882 509.959 147.473 509.311 148.424C508.619 149.399 508.385 150.329 508.609 151.211C508.748 151.76 509.077 152.159 509.598 152.408C510.118 152.657 510.652 152.712 511.201 152.573C512.132 152.337 512.919 151.762 513.564 150.85C514.25 149.901 514.479 148.974 514.249 148.067ZM515.34 149.066C515.367 149.174 515.249 148.905 514.984 148.261C515.023 149.166 514.672 150.112 513.932 151.099C513.189 152.075 512.382 152.673 511.511 152.894C511.07 153.006 510.555 153.079 509.967 153.114C510.935 153.377 511.509 153.485 511.688 153.44L512.296 153.285C513.048 153.095 513.786 152.527 514.511 151.581C515.248 150.632 515.525 149.794 515.34 149.066Z" fill="#C3471F"/>
<path d="M504.276 141.53C504.228 142.291 504.503 144.279 505.102 147.491C505.619 150.281 506.052 152.361 506.4 153.733C506.412 153.781 506.46 153.845 506.543 153.925C506.624 153.994 506.671 154.052 506.683 154.1C506.746 154.35 506.673 154.712 506.463 155.184C506.252 155.656 506.028 155.923 505.789 155.983C505.3 156.107 503.925 154.792 501.665 152.039C499.202 149.032 497.638 147.372 496.974 147.058C496.789 147.232 496.923 148.759 497.375 151.641C497.652 153.387 497.931 155.138 498.212 156.895L497.624 156.606C497.583 156.744 497.6 156.911 497.675 157.108C497.805 157.468 497.865 157.631 497.856 157.595C497.856 157.595 497.858 157.728 497.862 157.994L496.76 158.006L495.636 153.797C495.442 153.033 495.232 151.88 495.006 150.338C494.731 148.452 494.69 147.389 494.883 147.15C494.582 145.512 494.825 144.593 495.613 144.394C496.221 144.239 496.88 144.46 497.59 145.054C497.805 145.253 498.304 145.794 499.086 146.674C499.661 147.341 500.409 148.136 501.328 149.058C502.104 149.814 502.881 150.575 503.66 151.343C503.69 150.56 503.572 149.644 503.306 148.595C503.227 148.284 503.1 147.834 502.925 147.244C502.747 146.641 502.62 146.191 502.545 145.893C502.103 144.151 501.995 142.826 502.222 141.918L503.126 141.803L503.491 142.263L503.667 141.608L504.276 141.53ZM503.294 142.313L503.016 142.345L503.896 148.293L504.191 148.256L503.294 142.313ZM496.575 152.092L496.297 152.124L496.416 152.97L496.694 152.938L496.575 152.092Z" fill="#C3471F"/>
<path d="M488.236 152.34C487.218 153.182 486.321 153.702 485.545 153.899C485.104 154.01 484.668 154.419 484.238 155.125C483.807 155.831 483.648 156.405 483.76 156.846C483.86 157.24 484.094 157.815 484.464 158.572C484.843 159.314 485.087 159.9 485.196 160.33L485.209 160.459C485.126 160.582 485.043 160.705 484.96 160.827C484.844 160.971 484.726 161.058 484.607 161.088C483.629 161.336 482.991 160.876 482.695 159.707C482.622 159.42 482.549 158.982 482.476 158.391C482.402 157.8 482.327 157.356 482.252 157.057C482.115 156.521 481.787 155.95 481.265 155.346C480.822 154.849 480.372 154.353 479.917 153.859C480.131 153.703 480.513 153.556 481.062 153.417C481.229 153.374 481.485 153.557 481.829 153.965C482.063 154.236 482.291 154.508 482.513 154.782C482.887 154.205 483.485 153.608 484.307 152.994C485.137 152.364 485.869 151.969 486.501 151.809C486.692 151.76 487.27 151.937 488.236 152.34ZM487.412 152.549C487.275 152.558 487.182 152.493 487.134 152.353L486.794 152.439C485.721 152.711 484.809 153.273 484.06 154.123C484.149 154.075 485.267 153.55 487.412 152.549ZM484.114 154.262L483.988 154.141L483.346 154.913L483.476 155.052L484.114 154.262ZM483.458 155.056L483.284 155.044L483.098 155.738L483.277 155.769L483.458 155.056Z" fill="#C3471F"/>
<path d="M479.067 155.694C479.261 156.457 479.091 157.192 478.559 157.899C478.224 158.327 477.593 158.893 476.667 159.597C475.75 160.287 475.151 160.807 474.872 161.157C475.464 161.54 476.584 161.523 478.23 161.106C478.325 161.081 478.463 161.021 478.641 160.925C478.817 160.817 478.953 160.751 479.048 160.727C479.156 160.699 479.384 160.673 479.733 160.648L479.824 161.006C479.521 161.515 478.909 162.006 477.988 162.481C477.234 162.863 476.476 163.15 475.712 163.344C474.722 163.595 473.827 163.422 473.028 162.825C472.277 162.266 471.773 161.48 471.516 160.466C471.304 159.631 471.83 158.475 473.094 156.999C474.301 155.601 475.346 154.79 476.229 154.566C476.766 154.43 477.322 154.447 477.899 154.619C478.551 154.834 478.94 155.193 479.067 155.694ZM478.404 155.481C478.34 155.281 478.047 155.127 477.524 155.018C477.014 154.907 476.645 154.88 476.418 154.937C476.311 154.964 476.169 155.032 475.993 155.14C475.83 155.245 475.7 155.31 475.605 155.334C476.094 155.261 476.583 155.187 477.072 155.114C477.681 155.061 478.125 155.184 478.404 155.481ZM478.258 156.261C478.095 155.617 477.751 155.361 477.226 155.494L476.832 155.594C476.952 155.767 477.043 155.972 477.103 156.211C477.288 156.939 477.25 157.691 476.99 158.468C477.526 158.027 477.86 157.72 477.994 157.547C478.288 157.155 478.376 156.726 478.258 156.261ZM476.732 156.324C476.708 156.229 476.623 156.047 476.479 155.779L476.385 155.783C475.806 155.905 475.18 156.388 474.505 157.232C473.8 158.109 473.518 158.822 473.657 159.37L473.825 160.032L475.024 159.728C475.644 159.571 476.131 159.111 476.483 158.349C476.809 157.631 476.892 156.956 476.732 156.324ZM474.659 156.336C474.307 156.45 473.864 157.007 473.33 158.006C472.796 159.005 472.576 159.689 472.67 160.059L472.733 160.309C472.883 160.297 473.097 160.268 473.378 160.222C473.327 160.121 473.286 160.01 473.256 159.891C472.983 158.817 473.451 157.632 474.659 156.336ZM473.69 161.076L473.617 160.79C473.524 160.775 473.442 160.777 473.371 160.795C473.192 160.841 473.021 160.966 472.857 161.173L473.69 161.076ZM474.731 161.726C474.647 161.646 474.515 161.552 474.336 161.446L473.745 161.595C473.966 161.666 474.295 161.71 474.731 161.726ZM477.526 162.16C475.954 162.318 474.415 162.283 472.909 162.055C473.141 162.466 473.485 162.772 473.942 162.974C474.4 163.175 474.861 163.217 475.326 163.099C475.863 162.963 476.596 162.65 477.526 162.16Z" fill="#C3471F"/>
<path d="M470.169 161.969C470.275 162.387 470.289 162.967 470.211 163.711C470.142 164.591 469.947 165.073 469.625 165.154C469.625 165.154 469.459 165.152 469.128 165.147L468.96 164.485C468.875 164.151 468.89 163.658 469.004 163.007C469.13 162.353 469.152 161.865 469.071 161.543C468.835 160.612 468.383 159.832 467.715 159.201C466.945 158.469 466.137 158.236 465.29 158.502L465.093 158.552C464.587 159.607 464.078 160.657 463.568 161.7C463.344 162.367 463.454 163.577 463.898 165.33L462.51 165.34C462.496 165.381 462.438 165.631 462.338 166.088C462.274 166.384 462.158 166.604 461.991 166.747L461.441 166.754L460.497 163.032C460.783 162.159 460.669 160.709 460.155 158.68C459.465 155.96 458.649 153.92 457.707 152.559L457.931 152.312C458.251 152.523 458.552 152.859 458.834 153.321C459.071 153.705 459.304 154.097 459.532 154.496C459.581 154.039 459.584 153.448 459.539 152.723C459.471 151.801 459.436 151.213 459.435 150.959L459.972 150.899L461.147 155.458C461.162 155.517 461.142 155.611 461.085 155.74C461.041 155.866 461.026 155.958 461.042 156.018C461.135 156.388 461.31 156.927 461.566 157.637C461.835 158.343 462.015 158.882 462.109 159.251L462.351 159.38C464.534 157.824 465.828 156.994 466.234 156.891C466.735 156.764 467.348 157.079 468.073 157.834C468.562 158.409 469.05 158.983 469.539 159.558C469.537 159.901 469.614 160.307 469.771 160.775C470.036 161.571 470.169 161.969 470.169 161.969ZM461.446 159.039C461.328 158.574 460.946 157.47 460.302 155.729C460.421 157.299 460.622 158.645 460.906 159.766L461.12 160.607L461.451 160.637C461.575 160.073 461.573 159.54 461.446 159.039ZM462.118 161.992L461.922 162.042L462.119 163.344L462.315 163.294L462.118 161.992Z" fill="#C3471F"/>
<path d="M458.647 164.091C458.968 165.356 458.52 166.694 457.304 168.107C456.219 169.386 455.013 170.238 453.686 170.663C453.597 170.863 453.628 171.262 453.78 171.858C453.876 172.24 453.842 172.528 453.675 172.723L453.589 172.307C453.57 172.235 453.483 172.016 453.327 171.649C453.2 173.103 453.204 174.696 453.338 176.427L452.878 176.791L452.72 176.165C452.157 173.996 451.769 171.765 451.555 169.47C451.297 168.253 451.032 167.032 450.759 165.806C450.376 163.846 450.398 162.805 450.825 162.685L451.421 163.009C451.672 162.197 451.925 161.593 452.181 161.198C452.567 160.618 453.076 160.247 453.708 160.087C454.544 159.875 455.543 160.288 456.708 161.326C457.777 162.286 458.423 163.208 458.647 164.091ZM454.149 160.699L453.577 160.844C453.314 160.91 452.939 161.26 452.452 161.891L452.774 161.809C452.845 161.74 452.927 161.663 453.019 161.576C453.421 161.207 453.798 160.915 454.149 160.699ZM458.335 164.361C458.114 163.49 457.221 162.447 455.656 161.231C456.024 161.683 456.391 162.13 456.757 162.57C457.123 163.062 457.377 163.588 457.519 164.149C457.71 164.9 457.742 165.704 457.617 166.562C457.762 166.334 457.924 165.97 458.101 165.467C458.302 164.909 458.38 164.54 458.335 164.361ZM456.291 163.812C456.155 163.276 455.848 162.814 455.369 162.427C454.887 162.029 454.389 161.895 453.876 162.025C453.232 162.188 452.877 163.04 452.81 164.581C452.746 165.778 452.824 166.812 453.045 167.683C453.111 167.946 453.371 168.019 453.824 167.904C454.66 167.693 455.332 167.166 455.843 166.326C456.354 165.485 456.503 164.647 456.291 163.812ZM452.291 163.208L452.143 163.15L451.939 163.849L452.092 163.925L452.291 163.208ZM457.072 164.262C457.032 164.107 456.922 164.021 456.74 164.003C456.927 164.794 456.777 165.651 456.287 166.575C455.798 167.499 455.162 168.048 454.381 168.22L453.933 168.334C453.608 168.404 453.361 168.504 453.191 168.636C453.929 168.843 454.489 168.898 454.871 168.801C455.765 168.574 456.426 167.975 456.853 167.003C457.235 166.106 457.308 165.193 457.072 164.262ZM451.336 164.402L451.034 163.584C450.84 163.773 450.786 164.034 450.871 164.368C450.91 164.523 450.985 164.644 451.096 164.73C451.188 164.542 451.268 164.432 451.336 164.402ZM455.101 169.333C454.668 169.328 454.026 169.301 453.175 169.25L453.483 170.086L454.592 169.805C454.676 169.783 454.771 169.709 454.878 169.58C454.985 169.451 455.059 169.369 455.101 169.333ZM452.076 168.595L451.915 168.636L452.012 169.393L452.155 169.356L452.076 168.595ZM452.36 170.618C452.309 170.415 452.25 170.233 452.184 170.073C452.136 170.783 452.167 171.359 452.279 171.801C452.307 171.908 452.349 171.973 452.405 171.997C452.462 172.021 452.525 172.043 452.594 172.064C452.532 171.47 452.454 170.988 452.36 170.618Z" fill="#C3471F"/>
<path d="M448.264 164.991C448.564 166.172 448.378 167.419 447.708 168.731C447.038 170.044 446.118 170.849 444.949 171.145C443.923 171.405 442.963 171.3 442.069 170.828C441.136 170.354 440.541 169.609 440.284 168.595C439.939 167.235 440.115 165.978 440.813 164.823C441.507 163.657 442.535 162.901 443.895 162.556C444.646 162.366 445.515 162.539 446.502 163.076C447.489 163.613 448.077 164.251 448.264 164.991ZM447.614 164.603C447.437 164.407 447.136 164.147 446.711 163.823C446.921 164.1 447.218 164.545 447.602 165.159L447.614 164.603ZM445.066 163.269L444.886 163.162L444.806 163.297L444.981 163.385L445.066 163.269ZM446.411 165.27C446.281 164.757 445.94 164.361 445.386 164.083C444.845 163.801 444.318 163.725 443.805 163.855C442.898 164.085 442.121 164.676 441.474 165.627C440.781 166.603 440.547 167.532 440.771 168.415C440.91 168.963 441.24 169.362 441.76 169.611C442.281 169.86 442.815 169.915 443.364 169.776C444.294 169.54 445.082 168.966 445.727 168.053C446.413 167.105 446.641 166.177 446.411 165.27ZM447.503 166.269C447.53 166.377 447.411 166.109 447.146 165.465C447.185 166.369 446.835 167.315 446.095 168.303C445.352 169.278 444.545 169.877 443.674 170.097C443.232 170.209 442.718 170.283 442.13 170.318C443.098 170.58 443.671 170.688 443.85 170.643L444.459 170.489C445.21 170.298 445.949 169.73 446.674 168.784C447.411 167.835 447.687 166.997 447.503 166.269Z" fill="#C3471F"/>
<path d="M438.079 164.145C437.182 164.614 436.291 165.081 435.406 165.547C434.831 165.883 434.521 166.311 434.475 166.831C434.429 167.35 434.605 168.397 435.005 169.972C435.416 171.595 435.914 172.332 436.499 172.184C436.749 172.12 436.995 171.639 437.237 170.739L437.488 170.676C437.59 170.828 437.641 170.904 437.641 170.904C437.716 171.202 437.468 171.95 436.896 173.149C436.687 173.177 436.468 173.112 436.237 172.955C436.058 172.797 435.874 172.647 435.685 172.504L435.355 173.007C434.669 172.152 434.227 171.337 434.031 170.562C433.949 170.24 433.858 169.755 433.757 169.108C433.665 168.445 433.586 167.958 433.519 167.644L433.255 167.654C433.088 167.697 432.885 167.799 432.647 167.961C432.343 168.165 432.153 168.289 432.075 168.334L431.908 167.977C432.188 167.779 432.586 167.443 433.101 166.97L432.836 166.98L431.434 167.983L430.82 167.891L430.729 167.533C431.284 167.215 432.085 166.694 433.133 165.971C433.106 165.013 432.978 163.681 432.748 161.974C432.512 160.091 432.362 158.751 432.3 157.954C432.686 158.326 433.123 159.473 433.61 161.393C433.913 162.586 434.147 163.809 434.312 165.063L434.478 165.192C434.835 164.847 435.191 164.497 435.545 164.14C436.009 163.718 436.425 163.454 436.791 163.348L436.909 163.813L436.525 164.101C436.663 164.143 436.933 164.131 437.336 164.067C437.688 164.003 437.935 164.029 438.079 164.145ZM433.333 162.93L433.242 162.572L433.117 162.604L433.208 162.962L433.333 162.93ZM433.68 164.747C433.592 164.401 433.471 164.05 433.318 163.696C433.333 163.806 433.351 164.1 433.37 164.578C433.398 164.939 433.439 165.227 433.494 165.441C433.545 165.644 433.637 165.729 433.768 165.696C433.812 165.469 433.783 165.152 433.68 164.747ZM434.176 167.23C434.137 167.075 434.04 167.017 433.884 167.057L433.831 167.07L434.104 168.448C434.155 168.397 434.235 168.339 434.345 168.273C434.318 168.166 434.288 167.995 434.254 167.763C434.232 167.527 434.206 167.349 434.176 167.23Z" fill="#C3471F"/>
<path d="M429.441 166.717C428.66 167.194 427.874 167.673 427.081 168.153C425.89 168.913 425.344 169.489 425.444 169.883C425.616 170.563 426.041 170.912 426.719 170.931C427.325 170.866 427.932 170.807 428.541 170.754C429.21 170.737 429.618 171.021 429.766 171.605C429.984 172.464 429.857 173.29 429.385 174.083C428.913 174.875 428.248 175.381 427.389 175.599C426.876 175.729 426.243 175.762 425.491 175.699C424.747 175.621 424.126 175.474 423.626 175.258C423.682 175.028 423.843 174.86 424.108 174.754C424.523 174.586 424.751 174.484 424.792 174.448C425.007 174.292 425.279 173.937 425.608 173.384C425.837 172.983 426.064 172.576 426.289 172.163C425.948 172.021 425.604 171.867 425.258 171.701C424.92 171.52 424.705 171.251 424.615 170.893C424.4 170.046 424.597 169.196 425.206 168.343C425.815 167.49 426.549 166.955 427.408 166.737C428.279 166.516 428.956 166.51 429.441 166.717ZM429.355 171.71C429.303 171.507 429.152 171.387 428.901 171.349C428.701 171.311 428.496 171.28 428.287 171.257L427.76 171.505C428.502 172.129 428.981 172.414 429.196 172.36C429.398 172.308 429.451 172.092 429.355 171.71ZM426.569 171.464L426.009 171.358L426.04 171.484L426.547 171.603L426.569 171.464ZM428.18 172.484C427.513 172.209 427.066 172.1 426.84 172.157C426.768 172.175 426.342 172.874 425.562 174.252C426.062 174.024 426.569 173.794 427.082 173.562C427.755 173.214 428.121 172.854 428.18 172.484ZM428.361 174.552L428.276 174.44L428.106 174.598L428.138 174.723L428.361 174.552ZM429.094 172.861L428.655 172.782C428.23 173.36 427.598 173.844 426.757 174.235C426.006 174.527 425.255 174.819 424.503 175.111C425.214 175.21 425.671 175.234 425.874 175.183C426.446 175.038 427.057 174.743 427.707 174.299C428.436 173.822 428.899 173.343 429.094 172.861Z" fill="#C3471F"/>
<path d="M418.954 165.967C419.036 166.289 418.94 166.637 418.667 167.011C418.39 167.374 418.085 167.597 417.751 167.682C417.632 167.712 417.449 167.619 417.204 167.401C416.958 167.184 416.817 167.004 416.781 166.861C416.578 166.062 416.972 165.537 417.962 165.285C418.153 165.237 418.352 165.295 418.558 165.458C418.774 165.607 418.906 165.776 418.954 165.967ZM418.368 166.211L418.059 166.042C417.845 166.198 417.741 166.44 417.748 166.768L418.124 166.673C418.21 166.562 418.292 166.408 418.368 166.211ZM421.013 172.359C421.149 172.896 421.173 173.69 421.084 174.741C420.995 175.792 421 176.565 421.101 177.06C421.026 177.168 420.924 177.238 420.792 177.271C420.506 177.344 420.06 177.038 419.455 176.354C418.901 175.72 418.581 175.236 418.496 174.902C418.197 173.72 418.425 171.866 419.181 169.338L419.664 169.216C420.318 170.345 420.768 171.392 421.013 172.359ZM419.733 171.217C419.712 171.133 419.642 170.884 419.525 170.47C419.239 170.695 419.131 170.944 419.2 171.219C419.17 171.099 419.282 171.414 419.535 172.162C419.71 172.651 419.929 173.44 420.192 174.529C420.095 173.144 419.942 172.04 419.733 171.217ZM419.668 175.766C419.43 175.179 419.186 174.39 418.935 173.4C418.887 174.212 418.926 174.869 419.053 175.37C419.105 175.573 419.31 175.705 419.668 175.766Z" fill="#C3471F"/>
<path d="M416.355 170.569C415.337 171.411 414.44 171.931 413.665 172.127C413.223 172.239 412.787 172.648 412.357 173.354C411.926 174.06 411.767 174.634 411.879 175.075C411.979 175.469 412.214 176.044 412.583 176.801C412.962 177.543 413.206 178.129 413.315 178.558L413.329 178.688C413.245 178.811 413.162 178.933 413.079 179.056C412.963 179.2 412.845 179.287 412.726 179.317C411.748 179.565 411.111 179.105 410.814 177.935C410.741 177.649 410.668 177.211 410.595 176.62C410.521 176.029 410.446 175.584 410.371 175.286C410.235 174.749 409.906 174.179 409.384 173.575C408.941 173.078 408.491 172.582 408.036 172.088C408.25 171.932 408.632 171.785 409.181 171.645C409.348 171.603 409.604 171.786 409.948 172.194C410.182 172.464 410.41 172.737 410.632 173.011C411.006 172.433 411.604 171.837 412.426 171.223C413.256 170.593 413.988 170.198 414.62 170.038C414.811 169.989 415.389 170.166 416.355 170.569ZM415.532 170.778C415.394 170.787 415.302 170.722 415.253 170.582L414.913 170.668C413.84 170.94 412.928 171.501 412.179 172.352C412.268 172.304 413.386 171.779 415.532 170.778ZM412.233 172.49L412.107 172.37L411.465 173.142L411.595 173.281L412.233 172.49ZM411.577 173.285L411.403 173.272L411.217 173.967L411.396 173.998L411.577 173.285Z" fill="#C3471F"/>
<path d="M408.239 177.674C408.345 178.092 408.359 178.672 408.281 179.416C408.212 180.297 408.017 180.778 407.695 180.86C407.695 180.86 407.529 180.857 407.197 180.852L407.03 180.19C406.945 179.856 406.96 179.364 407.074 178.712C407.2 178.058 407.222 177.57 407.141 177.248C406.905 176.317 406.453 175.537 405.785 174.906C405.015 174.175 404.207 173.942 403.36 174.207L403.163 174.257C402.656 175.312 402.148 176.362 401.638 177.405C401.413 178.072 401.524 179.282 401.968 181.036L400.58 181.045C400.565 181.087 400.508 181.336 400.408 181.793C400.343 182.089 400.228 182.309 400.061 182.453L399.51 182.459L398.566 178.737C398.853 177.864 398.739 176.414 398.225 174.386C397.535 171.666 396.719 169.625 395.777 168.264L396 168.017C396.32 168.228 396.622 168.564 396.904 169.026C397.141 169.41 397.374 169.802 397.602 170.201C397.651 169.744 397.653 169.153 397.609 168.428C397.54 167.506 397.506 166.918 397.505 166.664L398.042 166.604L399.217 171.163C399.232 171.223 399.212 171.317 399.155 171.445C399.111 171.571 399.096 171.663 399.111 171.723C399.205 172.093 399.38 172.632 399.636 173.342C399.904 174.049 400.085 174.587 400.179 174.957L400.421 175.086C402.604 173.529 403.898 172.699 404.304 172.596C404.805 172.469 405.418 172.784 406.143 173.539C406.631 174.114 407.12 174.688 407.608 175.263C407.607 175.606 407.684 176.012 407.841 176.48C408.106 177.276 408.239 177.674 408.239 177.674ZM399.516 174.744C399.398 174.279 399.016 173.176 398.372 171.434C398.49 173.004 398.692 174.35 398.976 175.471L399.19 176.312L399.521 176.342C399.645 175.778 399.643 175.245 399.516 174.744ZM400.188 177.697L399.991 177.747L400.188 179.049L400.385 178.999L400.188 177.697Z" fill="#C3471F"/>
<path d="M397.438 179.804L397.552 180.403C397.074 181.121 396.591 181.847 396.104 182.58C395.456 183.43 394.793 183.941 394.113 184.113C392.943 184.41 391.765 183.845 390.578 182.419C389.595 181.247 388.936 179.998 388.6 178.674C388.171 176.98 388.509 175.135 389.616 173.141C390.722 171.146 392.106 169.919 393.767 169.459L394.402 170.384C394.006 170.574 393.603 170.764 393.195 170.957C392.748 171.197 392.397 171.464 392.141 171.757L392.685 172.553C392.497 172.359 392.265 172.297 391.991 172.367C391.156 172.579 390.592 173.712 390.301 175.767C390.038 177.535 390.035 178.926 390.292 179.94C390.719 181.622 391.923 182.212 393.903 181.71C394.44 181.574 395.058 181.207 395.757 180.611C396.454 180.003 396.802 179.698 396.802 179.698C396.802 179.698 397.014 179.733 397.438 179.804ZM389.651 174.408L389.499 174.408L389.442 174.861L389.613 174.932L389.651 174.408ZM389.537 174.932L389.389 174.95L389.119 177.114L389.267 177.172L389.537 174.932ZM396.444 180.989L396.296 180.855L396.113 181.187L396.226 181.33L396.444 180.989ZM389.227 177.315L389.039 177.325L389.107 177.669L389.277 177.664L389.227 177.315Z" fill="#C3471F"/>
<path d="M381.438 182.414C381.879 184.156 382.247 186.431 382.54 189.239C382.914 192.966 382.713 194.927 381.937 195.124C381.019 195.357 379.65 195.266 377.831 194.851L378.078 193.951C378.438 194.317 378.987 194.406 379.727 194.218C380.216 194.094 380.643 193.649 381.008 192.884C381.372 192.119 381.492 191.491 381.368 191.002C381.368 191.002 381.287 190.807 381.125 190.416C380.889 190.59 380.711 190.889 380.59 191.314C380.514 191.663 380.439 192.019 380.366 192.38L379.748 192.423L379.671 192.118C379.893 191.541 380.114 190.965 380.336 190.388C380.543 189.7 380.568 189.097 380.411 188.579L380.121 187.585C379.613 187.587 378.867 187.548 377.882 187.468C377.377 187.38 376.387 186.78 374.911 185.669C373.433 184.545 372.639 183.769 372.53 183.34C372.461 183.065 372.567 182.683 372.849 182.192C373.143 181.699 373.243 181.267 373.149 180.897C373.122 180.79 373.081 180.679 373.027 180.566L373.492 180.448C373.714 180.671 374.059 181.307 374.529 182.357C375.076 183.564 375.486 184.38 375.759 184.806C376.272 185.578 376.773 185.901 377.263 185.777C377.704 185.665 378.175 185.019 378.675 183.838C379.188 182.654 379.373 181.782 379.231 181.221C379.21 181.138 379.178 181.063 379.136 180.998C379.129 180.568 379.126 180.131 379.127 179.686C379.194 179.199 379.462 178.903 379.93 178.797L380.639 179.264C380.64 179.67 380.742 180.197 380.944 180.844C381.279 181.914 381.444 182.438 381.438 182.414ZM381.342 184.438L381.21 183.919L380.995 183.974L381.127 184.493L381.342 184.438ZM381.262 184.573C381.271 184.761 381.235 185.468 381.152 186.695C381.096 187.725 381.101 188.372 381.168 188.634C381.204 188.777 381.275 188.956 381.38 189.171C381.509 189.43 381.592 189.606 381.628 189.698C381.808 188.053 381.685 186.344 381.262 184.573ZM374.449 183.92L374.124 183.24L373.909 183.295L374.234 183.974L374.449 183.92ZM379.941 185.974L379.883 185.97C379.692 186.018 379.432 186.122 379.105 186.281C378.789 186.438 378.541 186.539 378.362 186.584C378.327 186.593 378.265 186.602 378.179 186.611C378.095 186.633 378.03 186.649 377.982 186.661C377.946 186.67 377.912 186.685 377.879 186.707C377.891 186.703 378.139 186.806 378.623 187.013C378.907 187.131 379.163 187.162 379.389 187.104C379.664 187.035 379.817 186.888 379.849 186.664C379.878 186.428 379.909 186.198 379.941 185.974ZM381.962 192.966C381.373 193.801 380.814 194.349 380.284 194.61C381.197 194.607 381.642 194.609 381.618 194.615C381.833 194.56 381.962 194.318 382.005 193.888C382.037 193.563 382.022 193.255 381.962 192.966Z" fill="#C3471F"/>
<path d="M371.485 184.481C371.718 185.399 371.487 186.467 370.793 187.685C370.368 188.414 369.57 189.474 368.399 190.863C367.278 192.201 366.566 193.15 366.264 193.709L365.687 193.912C365.582 193.647 365.529 193.514 365.529 193.514C365.32 192.691 365.219 191.415 365.225 189.687C365.231 187.959 365.113 186.668 364.871 185.815C365.149 184.957 364.998 183.383 364.417 181.093C364.296 180.616 364.021 180.031 363.591 179.34C363.09 178.515 362.775 177.948 362.645 177.638C363.063 177.582 363.272 177.555 363.272 177.555C363.439 177.512 363.668 177.416 363.96 177.266C364.261 177.101 364.495 176.997 364.662 176.955C366.022 176.61 367.069 176.605 367.801 176.94C368.632 177.313 369.214 178.156 369.547 179.468C369.777 180.375 369.843 181.062 369.747 181.531C369.662 181.997 369.358 182.627 368.835 183.42C369.355 183.466 369.873 183.506 370.389 183.54C370.993 183.666 371.358 183.98 371.485 184.481ZM368.629 178.101C368.602 177.994 368.506 177.84 368.341 177.641C368.188 177.438 368.062 177.318 367.963 177.279C367.865 177.241 367.722 177.226 367.533 177.236C367.794 177.563 368.178 178.05 368.685 178.696L368.671 178.643C368.644 178.586 368.635 178.499 368.643 178.383C368.649 178.255 368.644 178.161 368.629 178.101ZM367.717 178.637C367.483 178.315 367.255 177.992 367.033 177.667C366.761 177.394 366.393 177.322 365.931 177.452L365.77 177.493C365.744 177.588 365.671 177.651 365.551 177.681C365.728 177.929 366.059 178.156 366.543 178.363C367.028 178.57 367.419 178.662 367.717 178.637ZM368.479 180.139C368.391 179.793 367.911 179.426 367.038 179.038C366.365 178.738 365.748 178.533 365.187 178.421L365.287 178.815C365.453 179.421 365.547 180.317 365.569 181.505C365.588 182.732 365.67 183.632 365.815 184.204C365.855 184.36 365.939 184.567 366.068 184.826C366.611 184.561 367.181 183.858 367.78 182.716C368.388 181.558 368.621 180.699 368.479 180.139ZM370.288 185.318C370.194 184.948 369.951 184.692 369.56 184.55C369.168 184.408 368.782 184.385 368.4 184.482C368.066 184.567 367.65 184.78 367.153 185.122C366.602 185.503 366.2 185.745 365.946 185.847C365.968 186.083 365.977 186.57 365.974 187.307C365.973 187.904 366.017 188.381 366.108 188.739C366.138 188.859 366.286 189.215 366.551 189.808C366.718 189.816 366.879 189.801 367.034 189.761C367.81 189.565 368.587 188.974 369.365 187.989C370.168 186.948 370.475 186.057 370.288 185.318ZM367.455 191.045L367.365 191.068C367.21 191.107 367.006 191.127 366.752 191.128C366.445 191.117 366.242 191.118 366.143 191.13C366.109 191.596 366.131 191.984 366.21 192.294C366.243 192.425 366.285 192.542 366.336 192.643C366.559 192.269 366.932 191.736 367.455 191.045Z" fill="#C3471F"/>
</svg>
